<svg width="28" height="28" viewBox="0 0 28 28" fill="none" xmlns="http://www.w3.org/2000/svg">
<rect x="1.30946" y="0.984756" width="25.8045" height="25.8045" rx="4.07517" stroke="black" stroke-width="0.883575"/>
<mask id="mask0_92_202" style="mask-type:alpha" maskUnits="userSpaceOnUse" x="6" y="6" width="16" height="16">
<rect x="6.51367" y="6.18915" width="15.3957" height="15.3957" fill="#D9D9D9"/>
</mask>
<g mask="url(#mask0_92_202)">
<path d="M13.7296 14.3698H10.5221C10.3858 14.3698 10.2716 14.3237 10.1794 14.2314C10.0871 14.1392 10.041 14.0249 10.041 13.8886C10.041 13.7521 10.0871 13.6379 10.1794 13.5459C10.2716 13.4537 10.3858 13.4076 10.5221 13.4076H13.7296V10.2002C13.7296 10.0639 13.7757 9.94962 13.868 9.85746C13.9602 9.76519 14.0745 9.71906 14.2108 9.71906C14.3473 9.71906 14.4615 9.76519 14.5536 9.85746C14.6457 9.94962 14.6918 10.0639 14.6918 10.2002V13.4076H17.8992C18.0356 13.4076 18.1498 13.4537 18.242 13.546C18.3342 13.6383 18.3804 13.7526 18.3804 13.8889C18.3804 14.0253 18.3342 14.1395 18.242 14.2316C18.1498 14.3238 18.0356 14.3698 17.8992 14.3698H14.6918V17.5773C14.6918 17.7136 14.6457 17.8278 14.5534 17.92C14.4611 18.0123 14.3468 18.0584 14.2105 18.0584C14.0741 18.0584 13.9599 18.0123 13.8678 17.92C13.7757 17.8278 13.7296 17.7136 13.7296 17.5773V14.3698Z" fill="#1C1B1F"/>
</g>
</svg>
