<svg width="16" height="16" viewBox="0 0 16 16" fill="none" xmlns="http://www.w3.org/2000/svg">
<path d="M8.03336 7.46662V7.96662H8.53336H11.2C11.2184 7.96662 11.2333 7.9815 11.2333 7.99995C11.2333 8.0184 11.2184 8.03328 11.2 8.03328H8.53336H8.03336V8.53328V11.2C8.03336 11.2183 8.01841 11.2333 8.00003 11.2333C7.98165 11.2333 7.9667 11.2183 7.9667 11.2V8.53328V8.03328H7.4667H4.80003C4.78163 8.03328 4.7667 8.01836 4.7667 7.99995C4.7667 7.98154 4.78163 7.96662 4.80003 7.96662H7.4667H7.9667V7.46662V4.79995C7.9667 4.78154 7.98162 4.76662 8.00003 4.76662C8.01844 4.76662 8.03336 4.78154 8.03336 4.79995V7.46662ZM1.43555 7.99965C1.43555 4.37427 4.37451 1.4353 7.9999 1.4353C11.6253 1.4353 14.5642 4.37427 14.5642 7.99965C14.5642 11.625 11.6253 14.5641 7.9999 14.5641C4.37451 14.5641 1.43555 11.625 1.43555 7.99965ZM7.9999 1.44863C4.38187 1.44863 1.44887 4.38163 1.44887 7.99965C1.44887 11.6176 4.38187 14.5507 7.9999 14.5507C11.6179 14.5507 14.5509 11.6176 14.5509 7.99965C14.5509 4.38164 11.6179 1.44863 7.9999 1.44863Z" fill="#09090B" stroke="#18181B"/>
</svg>
