<svg width="20" height="20" viewBox="0 0 20 20" fill="none" xmlns="http://www.w3.org/2000/svg">
<mask id="mask0_103_12762" style="mask-type:alpha" maskUnits="userSpaceOnUse" x="0" y="0" width="20" height="20">
<rect width="20" height="20" fill="#D9D9D9"/>
</mask>
<g mask="url(#mask0_103_12762)">
<path d="M3.33304 17.2918C3.15582 17.2918 3.00742 17.2318 2.88784 17.112C2.76811 16.9923 2.70825 16.8439 2.70825 16.6668V15.9216C2.70825 15.7445 2.76818 15.5961 2.88804 15.4764C3.0079 15.3565 3.15638 15.2966 3.33346 15.2966C3.51068 15.2966 3.65909 15.3565 3.77867 15.4764C3.89839 15.5961 3.95825 15.7445 3.95825 15.9216V16.6668C3.95825 16.8439 3.89832 16.9923 3.77846 17.112C3.6586 17.2318 3.51013 17.2918 3.33304 17.2918ZM6.66638 17.2918C6.48915 17.2918 6.34075 17.2318 6.22117 17.112C6.10145 16.9923 6.04159 16.8439 6.04159 16.6668V12.1716C6.04159 11.9945 6.10152 11.8461 6.22138 11.7264C6.34124 11.6065 6.48971 11.5466 6.66679 11.5466C6.84402 11.5466 6.99242 11.6065 7.112 11.7264C7.23172 11.8461 7.29159 11.9945 7.29159 12.1716V16.6668C7.29159 16.8439 7.23165 16.9923 7.11179 17.112C6.99193 17.2318 6.84346 17.2918 6.66638 17.2918ZM9.99971 17.2918C9.82249 17.2918 9.67409 17.2318 9.5545 17.112C9.43478 16.9923 9.37492 16.8439 9.37492 16.6668V13.8382C9.37492 13.6612 9.43485 13.5127 9.55471 13.393C9.67457 13.2732 9.82304 13.2132 10.0001 13.2132C10.1773 13.2132 10.3258 13.2732 10.4453 13.393C10.5651 13.5127 10.6249 13.6612 10.6249 13.8382V16.6668C10.6249 16.8439 10.565 16.9923 10.4451 17.112C10.3253 17.2318 10.1768 17.2918 9.99971 17.2918ZM13.333 17.2918C13.1558 17.2918 13.0074 17.2318 12.8878 17.112C12.7681 16.9923 12.7083 16.8439 12.7083 16.6668V12.5882C12.7083 12.4112 12.7682 12.2627 12.888 12.143C13.0079 12.0232 13.1564 11.9632 13.3335 11.9632C13.5107 11.9632 13.6591 12.0232 13.7787 12.143C13.8984 12.2627 13.9583 12.4112 13.9583 12.5882V16.6668C13.9583 16.8439 13.8983 16.9923 13.7785 17.112C13.6586 17.2318 13.5101 17.2918 13.333 17.2918ZM16.6664 17.2918C16.4892 17.2918 16.3408 17.2318 16.2212 17.112C16.1014 16.9923 16.0416 16.8439 16.0416 16.6668V9.2549C16.0416 9.07782 16.1015 8.92941 16.2214 8.80969C16.3412 8.68983 16.4897 8.6299 16.6668 8.6299C16.844 8.6299 16.9924 8.68983 17.112 8.80969C17.2317 8.92941 17.2916 9.07782 17.2916 9.2549V16.6668C17.2916 16.8439 17.2317 16.9923 17.1118 17.112C16.9919 17.2318 16.8435 17.2918 16.6664 17.2918ZM11.6666 9.7549C11.471 9.7549 11.282 9.7174 11.0995 9.6424C10.917 9.5674 10.7503 9.46122 10.5993 9.32386L8.51763 7.24198C8.46957 7.19393 8.40811 7.1699 8.33325 7.1699C8.25839 7.1699 8.19693 7.19393 8.14888 7.24198L3.77242 11.6187C3.64839 11.7425 3.49985 11.8037 3.32679 11.8022C3.15374 11.8005 3.00527 11.7351 2.88138 11.6059C2.76596 11.4819 2.71082 11.3344 2.71596 11.1634C2.7211 10.9923 2.78047 10.8498 2.89409 10.7357L7.26596 6.36386C7.41693 6.214 7.58367 6.10469 7.76617 6.03594C7.94867 5.96719 8.1377 5.93282 8.33325 5.93282C8.52881 5.93282 8.72096 5.96719 8.90971 6.03594C9.09846 6.10469 9.26207 6.214 9.40054 6.36386L11.4822 8.44573C11.5303 8.49379 11.5917 8.51782 11.6666 8.51782C11.7414 8.51782 11.8029 8.49379 11.851 8.44573L16.2274 4.06907C16.3514 3.94518 16.5 3.884 16.673 3.88553C16.8461 3.88719 16.9946 3.95261 17.1185 4.08178C17.2339 4.2058 17.289 4.3533 17.2839 4.52428C17.2787 4.69539 17.2194 4.83796 17.1058 4.95198L12.7339 9.32386C12.5954 9.46122 12.4318 9.5674 12.243 9.6424C12.0543 9.7174 11.8621 9.7549 11.6666 9.7549Z" fill="black"/>
</g>
</svg>
