<svg width="14" height="14" viewBox="0 0 14 14" fill="none" xmlns="http://www.w3.org/2000/svg">
<path d="M13.46 12.6823L1.41781 1.00502C1.21093 0.804407 0.86873 0.862642 0.739854 1.12039C0.656655 1.28679 0.690988 1.48793 0.824676 1.6173L12.8786 13.2824C12.9565 13.3578 13.0607 13.3999 13.1691 13.3999C13.5444 13.3999 13.7294 12.9435 13.46 12.6823Z" fill="white"/>
<path d="M7.9642 6.8278L7.24372 6.13296L5.92257 4.97274L5.15421 4.22786L2.51717 1.67411C2.8896 1.44656 3.30996 1.33278 3.77793 1.33278C4.4557 1.33278 5.03326 1.57145 5.51059 2.04878C5.98804 2.52612 6.22676 3.10367 6.22676 3.78145C6.22676 4.32085 6.01077 4.7997 5.92257 4.97274L7.24372 6.13296L10.0818 3.70712C10.5014 3.35245 10.9412 3.19245 11.4011 3.22712C11.8609 3.26167 12.2631 3.41945 12.6078 3.70045C12.9523 3.98145 13.1854 4.35023 13.3071 4.80678C13.4286 5.26345 13.3433 5.73278 13.0511 6.21478L11.7689 8.33278C12.0425 8.5559 12.2598 8.83006 12.4209 9.15528C12.582 9.4804 12.6626 9.83445 12.6626 10.2175C12.6626 10.5889 12.5904 10.9303 12.4461 11.2416L9.95631 8.78829L9.13006 8.01377C9.45625 7.85034 9.81538 7.76862 10.2074 7.76862C10.3252 7.76862 10.4397 7.7774 10.5509 7.79495C10.6621 7.81251 10.7686 7.83878 10.8703 7.87378L12.1831 5.68795C12.3224 5.45806 12.3666 5.23212 12.3156 5.01012C12.2646 4.78812 12.1563 4.60734 11.9906 4.46778C11.8249 4.32823 11.6271 4.24795 11.3973 4.22695C11.1673 4.20606 10.945 4.28623 10.7306 4.46745L7.9642 6.8278ZM5.15421 4.22786C5.18107 4.11849 5.22676 3.91308 5.22676 3.78145C5.22676 3.38067 5.08548 3.03901 4.80292 2.75645C4.52048 2.47401 4.17881 2.33278 3.77793 2.33278C3.59645 2.33278 3.43621 2.3566 3.28155 2.41305L5.15421 4.22786ZM9.95631 8.78829L11.6112 10.419C11.6112 10.419 11.6626 10.3406 11.6626 10.2175C11.6626 9.85935 11.52 9.4749 11.2349 9.19245C10.9498 8.9099 10.6071 8.76862 10.2068 8.76862C10.1205 8.76862 10.037 8.77518 9.95631 8.78829Z" fill="white"/>
<path d="M5.9963 7.11376L6.71678 7.8086L8.03793 8.96881L8.80629 9.7137L11.4433 12.2674C11.0709 12.495 10.6505 12.6088 10.1826 12.6088C9.5048 12.6088 8.92725 12.3701 8.44991 11.8928C7.97247 11.4154 7.73375 10.8379 7.73375 10.1601C7.73375 9.6207 7.94974 9.14186 8.03793 8.96881L6.71678 7.8086L3.87875 10.2344C3.45908 10.5891 3.01931 10.7491 2.55942 10.7144C2.09964 10.6799 1.69742 10.5221 1.35275 10.2411C1.00819 9.9601 0.775085 9.59133 0.653418 9.13477C0.531862 8.6781 0.617194 8.20877 0.909417 7.72677L2.19158 5.60877C1.91803 5.38566 1.70069 5.11149 1.53958 4.78627C1.37847 4.46116 1.29792 4.10711 1.29792 3.72411C1.29792 3.35262 1.37008 3.01124 1.51441 2.69997L4.0042 5.15327L4.83045 5.92778C4.50425 6.09122 4.14513 6.17294 3.75308 6.17294C3.63531 6.17294 3.52081 6.16416 3.40958 6.1466C3.29836 6.12905 3.19192 6.10277 3.09025 6.06777L1.77742 8.2536C1.63808 8.48349 1.59392 8.70944 1.64492 8.93144C1.69592 9.15344 1.80425 9.33422 1.96992 9.47377C2.13558 9.61333 2.33336 9.6936 2.56325 9.7146C2.79325 9.73549 3.01547 9.65533 3.22992 9.4741L5.9963 7.11376ZM8.80629 9.7137C8.77944 9.82306 8.73375 10.0285 8.73375 10.1601C8.73375 10.5609 8.87503 10.9025 9.15758 11.1851C9.44003 11.4676 9.78169 11.6088 10.1826 11.6088C10.3641 11.6088 10.5243 11.585 10.679 11.5285L8.80629 9.7137ZM4.0042 5.15327L2.34926 3.52259C2.34926 3.52259 2.29792 3.60096 2.29792 3.72411C2.29792 4.08221 2.44047 4.46666 2.72558 4.7491C3.01069 5.03166 3.35342 5.17294 3.75375 5.17294C3.84002 5.17294 3.9235 5.16638 4.0042 5.15327Z" fill="white"/>
</svg>
