<svg width="14" height="12" viewBox="0 0 14 12" fill="none" xmlns="http://www.w3.org/2000/svg">
<path d="M3.91964 9.28229C3.49486 9.63695 3.05236 9.79762 2.59214 9.76428C2.1318 9.73095 1.73202 9.57373 1.3928 9.29262C1.05347 9.0114 0.822913 8.64256 0.701135 8.18612C0.579358 7.72979 0.662469 7.26273 0.950469 6.78495L2.22614 4.67329C1.95258 4.45028 1.73525 4.17467 1.57414 3.84645C1.41302 3.51823 1.33247 3.16351 1.33247 2.78228C1.33247 2.10451 1.57114 1.52695 2.04847 1.04962C2.5258 0.572285 3.10336 0.333618 3.78114 0.333618C4.45891 0.333618 5.03647 0.572285 5.5138 1.04962C5.99125 1.52695 6.22997 2.10451 6.22997 2.78228C6.22997 3.46006 5.99125 4.03762 5.5138 4.51495C5.03647 4.9924 4.45891 5.23112 3.78114 5.23112C3.66414 5.23112 3.54919 5.2234 3.4363 5.20795C3.32352 5.19262 3.21625 5.1674 3.11447 5.13228L1.81197 7.31178C1.67264 7.54167 1.62947 7.76773 1.68247 7.98995C1.73547 8.21217 1.84491 8.3929 2.0108 8.53212C2.1768 8.67123 2.37469 8.75029 2.60447 8.76929C2.83425 8.78829 3.05641 8.70929 3.27097 8.53229L10.085 2.70795C10.5046 2.35329 10.9444 2.19328 11.4043 2.22795C11.8641 2.26251 12.2663 2.42028 12.611 2.70128C12.9555 2.98229 13.1886 3.35106 13.3103 3.80762C13.4319 4.26428 13.3465 4.73362 13.0543 5.21562L11.7721 7.33362C12.0457 7.55673 12.263 7.8309 12.4241 8.15612C12.5852 8.48123 12.6658 8.83528 12.6658 9.21828C12.6658 9.89606 12.4256 10.4736 11.9451 10.951C11.4647 11.4283 10.8871 11.667 10.2125 11.667C9.5378 11.667 8.9618 11.4272 8.48447 10.9476C8.00702 10.4681 7.7683 9.89156 7.7683 9.21812C7.7683 8.54467 8.00747 7.96823 8.4858 7.48878C8.96414 7.00923 9.53908 6.76945 10.2106 6.76945C10.3284 6.76945 10.4429 6.77823 10.5541 6.79579C10.6654 6.81334 10.7718 6.83962 10.8735 6.87462L12.1863 4.68879C12.3256 4.4589 12.3698 4.23295 12.3188 4.01095C12.2678 3.78895 12.1595 3.60817 11.9938 3.46862C11.8281 3.32906 11.6304 3.24879 11.4005 3.22779C11.1705 3.2069 10.9482 3.28706 10.7338 3.46829L3.91964 9.28229ZM3.78114 4.23112C4.18202 4.23112 4.52369 4.08984 4.80614 3.80728C5.08869 3.52484 5.22997 3.18317 5.22997 2.78228C5.22997 2.38151 5.08869 2.03984 4.80614 1.75728C4.52369 1.47484 4.18202 1.33362 3.78114 1.33362C3.38036 1.33362 3.03869 1.47484 2.75614 1.75728C2.47369 2.03984 2.33247 2.38151 2.33247 2.78228C2.33247 3.18317 2.47369 3.52484 2.75614 3.80728C3.03869 4.08984 3.38036 4.23112 3.78114 4.23112ZM10.21 10.667C10.6103 10.667 10.953 10.5257 11.2381 10.2433C11.5232 9.96073 11.6658 9.61906 11.6658 9.21828C11.6658 8.8174 11.5232 8.47573 11.2381 8.19328C10.953 7.91073 10.6103 7.76945 10.21 7.76945C9.80952 7.76945 9.46914 7.91073 9.1888 8.19328C8.90847 8.47573 8.7683 8.8174 8.7683 9.21828C8.7683 9.61906 8.90847 9.96073 9.1888 10.2433C9.46914 10.5257 9.80952 10.667 10.21 10.667Z" fill="white"/>
</svg>
