<svg width="12" height="10" viewBox="0 0 12 10" fill="none" xmlns="http://www.w3.org/2000/svg">
<path d="M4.95736 0.756854L4.95737 0.756845C4.97038 0.743831 4.97038 0.722743 4.95737 0.70973L4.95735 0.709711C4.94434 0.696698 4.92325 0.696698 4.91023 0.709711L4.91023 0.709721L0.643558 4.97639L0.643549 4.9764C0.630536 4.98941 0.630536 5.0105 0.643549 5.02351L0.643561 5.02352L4.91017 9.29019C4.91019 9.29021 4.91021 9.29022 4.91023 9.29024M4.95736 0.756854L5.31091 9.64379C5.10263 9.85201 4.76495 9.85201 4.55667 9.64379L4.91023 9.29024M4.95736 0.756854L1.60116 4.11307L0.747605 4.96662H1.95471H11.3338C11.3522 4.96662 11.3671 4.98157 11.3671 4.99995C11.3671 5.01833 11.3522 5.03329 11.3338 5.03329H1.95471H0.747592L1.60116 5.88684L4.95733 9.24297M4.95736 0.756854L4.95733 9.29027M4.91023 9.29024C4.92323 9.30318 4.94432 9.30319 4.95733 9.29027M4.91023 9.29024L4.95733 9.29027M4.95733 9.29027C4.97038 9.27721 4.97039 9.25607 4.95736 9.243M4.95736 9.243L5.31091 8.88945L4.95733 9.24297M4.95736 9.243C4.95735 9.24299 4.95734 9.24298 4.95733 9.24297M4.95736 9.243L4.95733 9.24297" fill="#09090B" stroke="#18181B"/>
</svg>
