<svg width="32" height="32" viewBox="0 0 32 32" fill="none" xmlns="http://www.w3.org/2000/svg">
<rect x="2.6665" y="21.3335" width="21.3333" height="8" rx="3" stroke="#09090B" stroke-width="1.6"/>
<path d="M5.33838 10.6668C5.33838 8.15267 5.33838 6.89559 6.11943 6.11454C6.90048 5.3335 8.15755 5.3335 10.6717 5.3335H11.2475C12.2805 5.3335 12.797 5.3335 13.2663 5.51747C13.7355 5.70144 14.1144 6.05246 14.8722 6.7545L17.0977 8.81637C17.806 9.47257 18.1601 9.80067 18.3745 10.2158C18.4274 10.3183 18.4736 10.4242 18.5129 10.5327C18.6717 10.9721 18.6717 11.4549 18.6717 12.4204C18.6717 14.5286 18.6717 15.5826 18.109 16.3052C17.9737 16.4791 17.8173 16.6355 17.6434 16.7708C16.9209 17.3335 15.8668 17.3335 13.7586 17.3335H10.6717C8.15755 17.3335 6.90048 17.3335 6.11943 16.5524C5.33838 15.7714 5.33838 14.5143 5.33838 12.0002V10.6668Z" stroke="#09090B" stroke-width="1.6"/>
<path d="M13.3274 25.3335H13.3393M8 25.3335H8.01196M18.6547 25.3335H18.6667" stroke="#09090B" stroke-width="1.6" stroke-linecap="round" stroke-linejoin="round"/>
<path d="M26.6663 3.46675C27.1082 3.46675 27.4663 3.10858 27.4663 2.66675C27.4663 2.22492 27.1082 1.86675 26.6663 1.86675V3.46675ZM16.7351 8.13526C16.4415 8.46548 16.4713 8.97114 16.8015 9.26468C17.1317 9.55821 17.6374 9.52847 17.9309 9.19824L16.7351 8.13526ZM20.2796 5.35184L20.8775 5.88333L20.8775 5.88333L20.2796 5.35184ZM22.824 3.01779L22.4963 2.288L22.4963 2.288L22.824 3.01779ZM26.2589 3.46675H26.6663V1.86675H26.2589V3.46675ZM17.9309 9.19824L20.8775 5.88333L19.6817 4.82035L16.7351 8.13526L17.9309 9.19824ZM26.2589 1.86675C24.5614 1.86675 23.4708 1.85036 22.4963 2.288L23.1517 3.74758C23.7406 3.48314 24.4188 3.46675 26.2589 3.46675V1.86675ZM20.8775 5.88333C22.1 4.50802 22.5628 4.01202 23.1517 3.74758L22.4963 2.288C21.5217 2.72564 20.8094 3.55164 19.6817 4.82035L20.8775 5.88333Z" fill="#09090B"/>
<path d="M26.6079 16.0002H25.8079C25.8079 16.442 26.1661 16.8002 26.6079 16.8002V16.0002ZM25.4183 18.3933C25.2672 17.9781 24.8082 17.764 24.393 17.915C23.9778 18.0661 23.7637 18.5251 23.9147 18.9403L25.4183 18.3933ZM27.4079 15.3335C27.4079 14.8917 27.0498 14.5335 26.6079 14.5335C26.1661 14.5335 25.8079 14.8917 25.8079 15.3335H27.4079ZM27.4676 7.3335C27.4676 6.89167 27.1094 6.5335 26.6676 6.5335C26.2258 6.5335 25.8676 6.89167 25.8676 7.3335H27.4676ZM25.8676 8.00016C25.8676 8.44199 26.2258 8.80016 26.6676 8.80016C27.1094 8.80016 27.4676 8.44199 27.4676 8.00016H25.8676ZM27.4676 11.3335C27.4676 10.8917 27.1094 10.5335 26.6676 10.5335C26.2258 10.5335 25.8676 10.8917 25.8676 11.3335H27.4676ZM25.8676 12.0002C25.8676 12.442 26.2258 12.8002 26.6676 12.8002C27.1094 12.8002 27.4676 12.442 27.4676 12.0002H25.8676ZM27.8665 18.0002C27.8665 18.6413 27.3249 19.2002 26.6079 19.2002V20.8002C28.1648 20.8002 29.4665 19.5682 29.4665 18.0002H27.8665ZM26.6079 16.8002C27.3249 16.8002 27.8665 17.359 27.8665 18.0002H29.4665C29.4665 16.4322 28.1648 15.2002 26.6079 15.2002V16.8002ZM26.6079 19.2002C26.0468 19.2002 25.5855 18.8529 25.4183 18.3933L23.9147 18.9403C24.3127 20.0344 25.3765 20.8002 26.6079 20.8002V19.2002ZM27.4079 16.0002V15.3335H25.8079V16.0002H27.4079ZM25.8676 7.3335V8.00016H27.4676V7.3335H25.8676ZM25.8676 11.3335V12.0002H27.4676V11.3335H25.8676Z" fill="#09090B"/>
</svg>
