<svg width="14" height="15" viewBox="0 0 14 15" fill="none" xmlns="http://www.w3.org/2000/svg">
<mask id="mask0_92_230" style="mask-type:alpha" maskUnits="userSpaceOnUse" x="0" y="0" width="14" height="15">
<rect x="0.0239258" y="0.623718" width="13.5509" height="13.5509" fill="#D9D9D9"/>
</mask>
<g mask="url(#mask0_92_230)">
<path d="M4.15025 12.1984C3.86954 12.1984 3.62925 12.0984 3.42937 11.8985C3.2295 11.6987 3.12956 11.4584 3.12956 11.1777V4.01137H2.98841C2.86842 4.01137 2.76788 3.97077 2.68676 3.88956C2.60555 3.80835 2.56494 3.70775 2.56494 3.58777C2.56494 3.46769 2.60555 3.36714 2.68676 3.28612C2.76788 3.205 2.86842 3.16445 2.98841 3.16445H5.10573C5.10573 3.02621 5.15443 2.90839 5.25183 2.81099C5.34913 2.71369 5.4669 2.66504 5.60514 2.66504H7.99404C8.13228 2.66504 8.25005 2.71369 8.34735 2.81099C8.44475 2.90839 8.49345 3.02621 8.49345 3.16445H10.6108C10.7308 3.16445 10.8313 3.20505 10.9124 3.28626C10.9936 3.36747 11.0342 3.46807 11.0342 3.58805C11.0342 3.70813 10.9936 3.80868 10.9124 3.8897C10.8313 3.97082 10.7308 4.01137 10.6108 4.01137H10.4696V11.1777C10.4696 11.4584 10.3697 11.6987 10.1698 11.8985C9.96993 12.0984 9.72964 12.1984 9.44893 12.1984H4.15025ZM9.62269 4.01137H3.97649V11.1777C3.97649 11.2284 3.99277 11.27 4.02533 11.3026C4.05789 11.3351 4.09953 11.3514 4.15025 11.3514H9.44893C9.49965 11.3514 9.54129 11.3351 9.57385 11.3026C9.60641 11.27 9.62269 11.2284 9.62269 11.1777V4.01137ZM5.75744 10.2222C5.87742 10.2222 5.97797 10.1816 6.05909 10.1005C6.14011 10.0193 6.18062 9.91871 6.18062 9.79873V5.56408C6.18062 5.4441 6.14002 5.3435 6.05881 5.26229C5.97769 5.18117 5.8771 5.14061 5.75702 5.14061C5.63704 5.14061 5.53649 5.18117 5.45537 5.26229C5.37435 5.3435 5.33384 5.4441 5.33384 5.56408V9.79873C5.33384 9.91871 5.3744 10.0193 5.45551 10.1005C5.53672 10.1816 5.63737 10.2222 5.75744 10.2222ZM7.84216 10.2222C7.96214 10.2222 8.06269 10.1816 8.14381 10.1005C8.22483 10.0193 8.26534 9.91871 8.26534 9.79873V5.56408C8.26534 5.4441 8.22478 5.3435 8.14367 5.26229C8.06246 5.18117 7.96181 5.14061 7.84174 5.14061C7.72176 5.14061 7.62121 5.18117 7.54009 5.26229C7.45907 5.3435 7.41855 5.4441 7.41855 5.56408V9.79873C7.41855 9.91871 7.45916 10.0193 7.54037 10.1005C7.62149 10.1816 7.72208 10.2222 7.84216 10.2222Z" fill="#1C1B1F"/>
</g>
</svg>
