<svg width="12" height="12" viewBox="0 0 12 12" fill="none" xmlns="http://www.w3.org/2000/svg">
<path d="M4.51367 7.48646V4.51354H7.48658V7.48646H4.51367ZM5.53071 6.46941H6.46953V5.53059H5.53071V6.46941ZM3.84867 12V10.3029H2.95504C2.61198 10.3029 2.31658 10.179 2.06884 9.93128C1.8211 9.68354 1.69722 9.38814 1.69722 9.04508V8.15145H0.00012207V7.1344H1.69722V4.8656H0.00012207V3.84855H1.69722V2.95492C1.69722 2.61186 1.8211 2.31646 2.06884 2.06872C2.31658 1.82097 2.61198 1.6971 2.95504 1.6971H3.84867V0H4.86572V1.6971H7.13452V0H8.15157V1.6971H9.04521C9.38826 1.6971 9.68366 1.82097 9.93141 2.06872C10.1791 2.31646 10.303 2.61186 10.303 2.95492V3.84855H12.0001V4.8656H10.303V7.1344H12.0001V8.15145H10.303V9.04508C10.303 9.38814 10.1791 9.68354 9.93141 9.93128C9.68366 10.179 9.38826 10.3029 9.04521 10.3029H8.15157V12H7.13452V10.3029H4.86572V12H3.84867ZM9.04521 9.28585C9.10544 9.28585 9.1606 9.26075 9.21067 9.21055C9.26087 9.16048 9.28597 9.10532 9.28597 9.04508V2.95492C9.28597 2.89468 9.26087 2.83952 9.21067 2.78945C9.1606 2.73925 9.10544 2.71415 9.04521 2.71415H2.95504C2.8948 2.71415 2.83964 2.73925 2.78957 2.78945C2.73937 2.83952 2.71427 2.89468 2.71427 2.95492V9.04508C2.71427 9.10532 2.73937 9.16048 2.78957 9.21055C2.83964 9.26075 2.8948 9.28585 2.95504 9.28585H9.04521Z" fill="white"/>
</svg>
