<svg width="14" height="14" viewBox="0 0 14 14" fill="none" xmlns="http://www.w3.org/2000/svg">
<path d="M5.51359 8.48643V5.51352H8.4865V8.48643H5.51359ZM6.53064 7.46938H7.46945V6.53056H6.53064V7.46938ZM4.8486 13V11.3029H3.95496C3.6119 11.3029 3.3165 11.179 3.06876 10.9313C2.82102 10.6835 2.69715 10.3881 2.69715 10.0451V9.15142H1.00004V8.13437H2.69715V5.86557H1.00004V4.84852H2.69715V3.95489C2.69715 3.61183 2.82102 3.31643 3.06876 3.06869C3.3165 2.82095 3.6119 2.69707 3.95496 2.69707H4.8486V0.999972H5.86564V2.69707H8.13444V0.999972H9.15149V2.69707H10.0451C10.3882 2.69707 10.6836 2.82095 10.9313 3.06869C11.1791 3.31643 11.3029 3.61183 11.3029 3.95489V4.84852H13V5.86557H11.3029V8.13437H13V9.15142H11.3029V10.0451C11.3029 10.3881 11.1791 10.6835 10.9313 10.9313C10.6836 11.179 10.3882 11.3029 10.0451 11.3029H9.15149V13H8.13444V11.3029H5.86564V13H4.8486ZM10.0451 10.2858C10.1054 10.2858 10.1605 10.2607 10.2106 10.2105C10.2608 10.1604 10.2859 10.1053 10.2859 10.0451V3.95489C10.2859 3.89465 10.2608 3.83949 10.2106 3.78942C10.1605 3.73922 10.1054 3.71412 10.0451 3.71412H3.95496C3.89472 3.71412 3.83957 3.73922 3.7895 3.78942C3.7393 3.83949 3.71419 3.89465 3.71419 3.95489V10.0451C3.71419 10.1053 3.7393 10.1604 3.7895 10.2105C3.83957 10.2607 3.89472 10.2858 3.95496 10.2858H10.0451Z" fill="white"/>
<path d="M13.4595 12.6819L1.4173 1.00465C1.21042 0.80404 0.868224 0.862276 0.739348 1.12003C0.656149 1.28643 0.690482 1.48756 0.82417 1.61693L12.8781 13.282C12.956 13.3574 13.0602 13.3996 13.1686 13.3996C13.5439 13.3996 13.7289 12.9432 13.4595 12.6819Z" fill="white"/>
</svg>
