<svg width="15" height="15" viewBox="0 0 15 15" fill="none" xmlns="http://www.w3.org/2000/svg">
<mask id="mask0_92_227" style="mask-type:alpha" maskUnits="userSpaceOnUse" x="0" y="0" width="15" height="15">
<rect x="0.82666" y="0.623535" width="13.5509" height="13.5509" fill="#D9D9D9"/>
</mask>
<g mask="url(#mask0_92_227)">
<path d="M3.64966 11.3515H4.36193L10.1417 5.57173L9.42939 4.85946L3.64966 10.6392V11.3515ZM3.31315 12.1984C3.16851 12.1984 3.04731 12.1495 2.94954 12.0516C2.85167 11.9538 2.80273 11.8326 2.80273 11.688V10.7098C2.80273 10.5721 2.82918 10.4409 2.88206 10.3161C2.93486 10.1913 3.0076 10.0826 3.10029 9.98988L10.2503 2.84306C10.3357 2.76552 10.4299 2.70563 10.5331 2.66337C10.6363 2.62103 10.7445 2.59985 10.8577 2.59985C10.9709 2.59985 11.0806 2.61994 11.1866 2.66013C11.2928 2.70031 11.3867 2.7642 11.4685 2.85181L12.1581 3.54997C12.2457 3.63174 12.3081 3.72585 12.3454 3.83228C12.3826 3.93871 12.4013 4.04514 12.4013 4.15157C12.4013 4.26515 12.3819 4.37351 12.3431 4.47665C12.3043 4.57988 12.2427 4.67417 12.1581 4.75952L5.01124 11.9008C4.91855 11.9935 4.80982 12.0663 4.68504 12.1191C4.56025 12.1719 4.42903 12.1984 4.29135 12.1984H3.31315ZM9.77931 5.22181L9.42939 4.85946L10.1417 5.57173L9.77931 5.22181Z" fill="#1C1B1F"/>
</g>
</svg>
