<svg width="22" height="28" viewBox="0 0 22 28" fill="none" xmlns="http://www.w3.org/2000/svg">
<path d="M12.3336 21.3666L7.43357 18.0999C7.18913 17.9221 6.97802 17.711 6.80024 17.4666C6.62246 17.2221 6.50024 16.9443 6.43357 16.6332L5.23357 11.4999L2.46691 13.9999L3.10024 17.2999C3.16691 17.611 3.1058 17.9055 2.91691 18.1832C2.72802 18.461 2.46691 18.6332 2.13357 18.6999C1.82246 18.7666 1.52802 18.7055 1.25024 18.5166C0.972463 18.3277 0.80024 18.0777 0.733574 17.7666L0.0669069 14.4666C-0.021982 14.0443 0.00579581 13.6332 0.15024 13.2332C0.294685 12.8332 0.522462 12.4888 0.833574 12.1999L5.93357 7.66657C6.33357 7.31101 6.82246 7.12768 7.40024 7.11657C7.97802 7.10546 8.53357 7.26657 9.06691 7.5999C9.64468 7.97768 10.2891 8.24435 11.0002 8.3999C11.7114 8.55546 12.4669 8.5999 13.2669 8.53324C13.8447 8.48879 14.4002 8.37768 14.9336 8.1999C15.4669 8.02213 15.978 7.78879 16.4669 7.4999C16.778 7.32213 17.0947 7.2499 17.4169 7.28324C17.7391 7.31657 18.0114 7.46657 18.2336 7.73324C18.4558 7.9999 18.5447 8.29435 18.5002 8.61657C18.4558 8.93879 18.2891 9.18879 18.0002 9.36657C17.5336 9.67768 17.0447 9.93879 16.5336 10.1499C16.0225 10.361 15.4891 10.5332 14.9336 10.6666C14.1558 10.8443 13.3614 10.9332 12.5502 10.9332C11.7391 10.9332 10.9447 10.8332 10.1669 10.6332L11.0336 14.0999L14.4669 13.4332C14.778 13.3666 15.1002 13.3721 15.4336 13.4499C15.7669 13.5277 16.0669 13.6555 16.3336 13.8332L21.2336 17.3332C21.5002 17.511 21.6613 17.7666 21.7169 18.0999C21.7725 18.4332 21.7002 18.7332 21.5002 18.9999C21.3002 19.2666 21.0391 19.4277 20.7169 19.4832C20.3947 19.5388 20.1002 19.4666 19.8336 19.2666L15.1002 15.8999L10.1669 16.8666L13.6669 19.0999C14.0891 19.3666 14.4002 19.7277 14.6002 20.1832C14.8002 20.6388 14.8447 21.111 14.7336 21.5999L13.7669 26.4332C13.7002 26.7444 13.5336 26.9944 13.2669 27.1832C13.0002 27.3721 12.7002 27.4332 12.3669 27.3666C12.0336 27.2999 11.7725 27.1332 11.5836 26.8666C11.3947 26.5999 11.3336 26.2999 11.4002 25.9666L12.3336 21.3666ZM6.60024 5.9999C5.82246 5.9999 5.16135 5.72768 4.61691 5.18324C4.07246 4.63879 3.80024 3.97768 3.80024 3.1999C3.80024 2.42212 4.07246 1.76101 4.61691 1.21657C5.16135 0.672125 5.82246 0.399902 6.60024 0.399902C7.37802 0.399902 8.03913 0.672125 8.58357 1.21657C9.12802 1.76101 9.40024 2.42212 9.40024 3.1999C9.40024 3.97768 9.12802 4.63879 8.58357 5.18324C8.03913 5.72768 7.37802 5.9999 6.60024 5.9999Z" fill="#1C1B1F"/>
</svg>
