<svg width="20" height="20" viewBox="0 0 20 20" fill="none" xmlns="http://www.w3.org/2000/svg">
<mask id="mask0_103_12743" style="mask-type:alpha" maskUnits="userSpaceOnUse" x="0" y="0" width="20" height="20">
<rect width="20" height="20" fill="#D9D9D9"/>
</mask>
<g mask="url(#mask0_103_12743)">
<path d="M5 15.8332H7.78854V11.6345C7.78854 11.4211 7.86069 11.2423 8.005 11.0978C8.14944 10.9535 8.32833 10.8813 8.54167 10.8813H11.4583C11.6717 10.8813 11.8506 10.9535 11.995 11.0978C12.1393 11.2423 12.2115 11.4211 12.2115 11.6345V15.8332H15V8.46135C15 8.41871 14.9906 8.38003 14.9719 8.34531C14.9533 8.31058 14.9279 8.27982 14.8958 8.25302L10.1523 4.68739C10.1095 4.65003 10.0587 4.63135 10 4.63135C9.94125 4.63135 9.89049 4.65003 9.84771 4.68739L5.10417 8.25302C5.07208 8.27982 5.04674 8.31058 5.02813 8.34531C5.00938 8.38003 5 8.41871 5 8.46135V15.8332ZM3.75 15.8332V8.46135C3.75 8.22288 3.80333 7.99697 3.91 7.78364C4.01681 7.57017 4.16431 7.3944 4.3525 7.25635L9.09625 3.6826C9.35944 3.48176 9.66028 3.38135 9.99875 3.38135C10.3372 3.38135 10.6389 3.48176 10.9038 3.6826L15.6475 7.25635C15.8357 7.3944 15.9832 7.57017 16.09 7.78364C16.1967 7.99697 16.25 8.22288 16.25 8.46135V15.8332C16.25 16.1741 16.1269 16.4676 15.8806 16.7138C15.6344 16.9601 15.3408 17.0832 15 17.0832H11.7148C11.5013 17.0832 11.3224 17.011 11.1781 16.8666C11.0337 16.7223 10.9615 16.5434 10.9615 16.3299V12.1313H9.03854V16.3299C9.03854 16.5434 8.96632 16.7223 8.82188 16.8666C8.67757 17.011 8.49868 17.0832 8.28521 17.0832H5C4.65917 17.0832 4.36562 16.9601 4.11937 16.7138C3.87312 16.4676 3.75 16.1741 3.75 15.8332Z" fill="black"/>
</g>
</svg>
