<svg width="20" height="20" viewBox="0 0 20 20" fill="none" xmlns="http://www.w3.org/2000/svg">
<mask id="mask0_103_12756" style="mask-type:alpha" maskUnits="userSpaceOnUse" x="0" y="0" width="20" height="20">
<rect width="20" height="20" fill="#D9D9D9"/>
</mask>
<g mask="url(#mask0_103_12756)">
<path d="M13.5 7.5V3.7002C13.5 3.58974 13.4103 3.5 13.2998 3.5H2.7002C2.58974 3.5 2.5 3.58974 2.5 3.7002V16.5C2.5 16.7761 2.72386 17 3 17H7.5C7.77614 17 8 17.2239 8 17.5C8 17.7761 7.77614 18 7.5 18H3C2.17157 18 1.5 17.3284 1.5 16.5V3.7002C1.5 3.03745 2.03745 2.5 2.7002 2.5H13.2998C13.9625 2.5 14.5 3.03745 14.5 3.7002V7.5C14.5 7.77614 14.2761 8 14 8C13.7239 8 13.5 7.77614 13.5 7.5Z" fill="black"/>
<path d="M11.5 5.1499C11.7485 5.1499 11.9502 5.35157 11.9502 5.6001C11.9502 5.84863 11.7485 6.05029 11.5 6.05029H8C7.75147 6.05029 7.5498 5.84863 7.5498 5.6001C7.5498 5.35157 7.75147 5.1499 8 5.1499H11.5Z" fill="black"/>
<path d="M11.5 8.5498C11.7485 8.5498 11.9502 8.75147 11.9502 9C11.9502 9.24853 11.7485 9.4502 11.5 9.4502H8C7.75147 9.4502 7.5498 9.24853 7.5498 9C7.5498 8.75147 7.75147 8.5498 8 8.5498H11.5Z" fill="black"/>
<path d="M10 11.5498C10.2485 11.5498 10.4502 11.7515 10.4502 12C10.4502 12.2485 10.2485 12.4502 10 12.4502H8C7.75147 12.4502 7.5498 12.2485 7.5498 12C7.5498 11.7515 7.75147 11.5498 8 11.5498H10Z" fill="black"/>
<path d="M5.75293 4.75293C5.88961 4.61625 6.11039 4.61625 6.24707 4.75293C6.38375 4.88961 6.38375 5.11039 6.24707 5.24707L4.88867 6.60645C4.67396 6.82082 4.32604 6.82082 4.11133 6.60645L3.75293 6.24707C3.61625 6.11039 3.61625 5.88961 3.75293 5.75293C3.88961 5.61625 4.11039 5.61625 4.24707 5.75293L4.49902 6.00488L5.75293 4.75293Z" fill="black"/>
<path d="M5.75293 7.75293C5.88961 7.61625 6.11039 7.61625 6.24707 7.75293C6.38375 7.88961 6.38375 8.11039 6.24707 8.24707L4.88867 9.60645C4.67396 9.82082 4.32604 9.82082 4.11133 9.60645L3.75293 9.24707C3.61625 9.11039 3.61625 8.88961 3.75293 8.75293C3.88961 8.61625 4.11039 8.61625 4.24707 8.75293L4.49902 9.00488L5.75293 7.75293Z" fill="black"/>
<path d="M5.75293 11.053C5.88961 10.9163 6.11039 10.9163 6.24707 11.053C6.38375 11.1897 6.38375 11.4104 6.24707 11.5471L4.88867 12.9065C4.67396 13.1209 4.32604 13.1209 4.11133 12.9065L3.75293 12.5471C3.61625 12.4104 3.61625 12.1897 3.75293 12.053C3.88961 11.9163 4.11039 11.9163 4.24707 12.053L4.49902 12.3049L5.75293 11.053Z" fill="black"/>
<path d="M13.0449 9.65625C13.4409 8.96324 14.4027 8.91961 14.8691 9.52637L14.9551 9.65625L18.7832 16.3545C19.2018 17.0876 18.6723 17.9997 17.8281 18H10.1719C9.32768 17.9997 8.79823 17.0876 9.2168 16.3545L13.0449 9.65625ZM14.0869 10.1523C14.0485 10.0852 13.9515 10.0852 13.9131 10.1523L10.0859 16.8506C10.0479 16.9171 10.0954 16.9997 10.1719 17H17.8281L17.8789 16.9863C17.9083 16.9688 17.9269 16.9366 17.9277 16.9023L17.9141 16.8506L14.0869 10.1523Z" fill="black"/>
<path d="M14.5 15.9C14.5 16.1761 14.2761 16.4 14 16.4C13.7239 16.4 13.5 16.1761 13.5 15.9C13.5 15.6239 13.7239 15.4 14 15.4C14.2761 15.4 14.5 15.6239 14.5 15.9Z" fill="black"/>
<path d="M13.5498 14.5V12C13.5498 11.7515 13.7515 11.5498 14 11.5498C14.2485 11.5498 14.4502 11.7515 14.4502 12V14.5C14.4502 14.7485 14.2485 14.9502 14 14.9502C13.7515 14.9502 13.5498 14.7485 13.5498 14.5Z" fill="black"/>
</g>
</svg>
