<svg width="40" height="40" viewBox="0 0 40 40" fill="none" xmlns="http://www.w3.org/2000/svg">
<g clip-path="url(#clip0_5503_6638)">
<path d="M30.6066 12.8922C28.5088 10.7944 25.8361 9.36579 22.9264 8.78701C20.0166 8.20823 17.0006 8.50528 14.2597 9.6406C11.5188 10.7759 9.17616 12.6985 7.52794 15.1653C5.87972 17.632 4.99999 20.5321 5 23.4988V28.9988H14V26.9988H7V23.4988C7 16.3306 12.8318 10.4988 20 10.4988C27.1682 10.4988 33 16.3306 33 23.4988V26.9988H26V28.9988H35V23.4988C35.0054 21.5282 34.6198 19.5761 33.8657 17.7555C33.1116 15.9348 32.0039 14.2819 30.6066 12.8922V12.8922Z" fill="#18181B"/>
<path d="M11 20.5H9V22.5H11V20.5Z" fill="#18181B"/>
<path d="M21 12H19V14H21V12Z" fill="#18181B"/>
<path d="M14.5 14.5H12.5V16.5H14.5V14.5Z" fill="#18181B"/>
<path d="M31 20.5H29V22.5H31V20.5Z" fill="#18181B"/>
<path d="M22.5767 24.9449L26.9017 15.9341L25.0986 15.0686L20.7746 24.077C19.8176 23.8863 18.8238 24.0513 17.9796 24.541C17.1355 25.0307 16.499 25.8115 16.1894 26.737C15.8799 27.6626 15.9186 28.6692 16.2983 29.5682C16.678 30.4672 17.3725 31.1969 18.2518 31.6203C19.1311 32.0438 20.1346 32.132 21.0742 31.8683C22.0138 31.6047 22.825 31.0073 23.3556 30.1883C23.8863 29.3693 24.0999 28.3848 23.9565 27.4195C23.8131 26.4542 23.3225 25.5743 22.5767 24.9449V24.9449ZM20.0003 30.0012C19.6048 30.0012 19.2181 29.8839 18.8892 29.6641C18.5603 29.4443 18.3039 29.132 18.1526 28.7665C18.0012 28.4011 17.9616 27.9989 18.0388 27.611C18.1159 27.223 18.3064 26.8667 18.5861 26.587C18.8658 26.3072 19.2222 26.1168 19.6102 26.0396C19.9981 25.9624 20.4002 26.002 20.7657 26.1534C21.1312 26.3048 21.4435 26.5611 21.6633 26.89C21.883 27.2189 22.0003 27.6056 22.0003 28.0012C21.9997 28.5314 21.7888 29.0398 21.4139 29.4147C21.0389 29.7897 20.5306 30.0006 20.0003 30.0012Z" fill="#18181B"/>
</g>
<defs>
<clipPath id="clip0_5503_6638">
<path d="M4 12C4 7.58172 7.58172 4 12 4H28C32.4183 4 36 7.58172 36 12V28C36 32.4183 32.4183 36 28 36H12C7.58172 36 4 32.4183 4 28V12Z" fill="white"/>
</clipPath>
</defs>
</svg>
