<svg width="16" height="16" viewBox="0 0 16 16" fill="none" xmlns="http://www.w3.org/2000/svg">
<mask id="path-1-inside-1_4147_4644" fill="white">
<path fill-rule="evenodd" clip-rule="evenodd" d="M2.66667 1.06665H13.3333C14.217 1.06665 14.9333 1.78299 14.9333 2.66665V13.3333C14.9333 14.2169 14.217 14.9333 13.3333 14.9333H2.66667C1.78301 14.9333 1.06667 14.2169 1.06667 13.3333V2.66665C1.06667 1.78299 1.78301 1.06665 2.66667 1.06665ZM2.66667 2.13332C2.37212 2.13332 2.13333 2.3721 2.13333 2.66665V8.92116L3.92725 7.12724C4.01929 7.03519 4.14477 6.98449 4.27492 6.98673C4.40507 6.98895 4.52872 7.04395 4.61755 7.13911L8.39845 11.1894L11.3939 8.1939C11.5813 8.00646 11.8853 8.00646 12.0727 8.1939L13.8667 9.98782V2.66665C13.8667 2.3721 13.6278 2.13332 13.3333 2.13332H2.66667ZM2.13333 13.3333V10.2788L4.25479 8.15735L8.03317 12.2049L9.5372 13.8667H2.66667C2.37212 13.8667 2.13333 13.6278 2.13333 13.3333ZM13.3333 13.8667H10.832L9.04892 11.8965L11.7333 9.21214L13.8667 11.3455V13.3333C13.8667 13.6278 13.6278 13.8667 13.3333 13.8667ZM7.0925 5.86665C7.0925 5.36546 7.4988 4.95915 8 4.95915C8.50119 4.95915 8.9075 5.36546 8.9075 5.86665C8.9075 6.36785 8.50119 6.77415 8 6.77415C7.4988 6.77415 7.0925 6.36785 7.0925 5.86665ZM8 3.99915C6.96861 3.99915 6.1325 4.83526 6.1325 5.86665C6.1325 6.89804 6.96861 7.73415 8 7.73415C9.03139 7.73415 9.8675 6.89804 9.8675 5.86665C9.8675 4.83526 9.03139 3.99915 8 3.99915Z"/>
</mask>
<path fill-rule="evenodd" clip-rule="evenodd" d="M2.66667 1.06665H13.3333C14.217 1.06665 14.9333 1.78299 14.9333 2.66665V13.3333C14.9333 14.2169 14.217 14.9333 13.3333 14.9333H2.66667C1.78301 14.9333 1.06667 14.2169 1.06667 13.3333V2.66665C1.06667 1.78299 1.78301 1.06665 2.66667 1.06665ZM2.66667 2.13332C2.37212 2.13332 2.13333 2.3721 2.13333 2.66665V8.92116L3.92725 7.12724C4.01929 7.03519 4.14477 6.98449 4.27492 6.98673C4.40507 6.98895 4.52872 7.04395 4.61755 7.13911L8.39845 11.1894L11.3939 8.1939C11.5813 8.00646 11.8853 8.00646 12.0727 8.1939L13.8667 9.98782V2.66665C13.8667 2.3721 13.6278 2.13332 13.3333 2.13332H2.66667ZM2.13333 13.3333V10.2788L4.25479 8.15735L8.03317 12.2049L9.5372 13.8667H2.66667C2.37212 13.8667 2.13333 13.6278 2.13333 13.3333ZM13.3333 13.8667H10.832L9.04892 11.8965L11.7333 9.21214L13.8667 11.3455V13.3333C13.8667 13.6278 13.6278 13.8667 13.3333 13.8667ZM7.0925 5.86665C7.0925 5.36546 7.4988 4.95915 8 4.95915C8.50119 4.95915 8.9075 5.36546 8.9075 5.86665C8.9075 6.36785 8.50119 6.77415 8 6.77415C7.4988 6.77415 7.0925 6.36785 7.0925 5.86665ZM8 3.99915C6.96861 3.99915 6.1325 4.83526 6.1325 5.86665C6.1325 6.89804 6.96861 7.73415 8 7.73415C9.03139 7.73415 9.8675 6.89804 9.8675 5.86665C9.8675 4.83526 9.03139 3.99915 8 3.99915Z" fill="#E4E4E7"/>
<path d="M2.13333 8.92116H0.133332V13.7496L3.54755 10.3354L2.13333 8.92116ZM4.27492 6.98673L4.24051 8.98643L4.24067 8.98643L4.27492 6.98673ZM4.61755 7.13911L3.1555 8.50381L3.15555 8.50386L4.61755 7.13911ZM8.39845 11.1894L6.93645 12.5542L8.34898 14.0674L9.81268 12.6036L8.39845 11.1894ZM11.3939 8.1939L12.8081 9.6081L12.8083 9.608L11.3939 8.1939ZM12.0727 8.1939L10.6584 9.608L10.6585 9.60812L12.0727 8.1939ZM13.8667 9.98782L12.4525 11.402L15.8667 14.8163V9.98782H13.8667ZM2.13333 10.2788L0.719119 8.8646L0.133332 9.45038V10.2788H2.13333ZM4.25479 8.15735L5.71678 6.79258L4.30427 5.27945L2.84058 6.74314L4.25479 8.15735ZM8.03317 12.2049L9.51601 10.8628L9.50567 10.8514L9.49516 10.8401L8.03317 12.2049ZM9.5372 13.8667V15.8667H14.0449L11.02 12.5246L9.5372 13.8667ZM10.832 13.8667L9.34914 15.2087L9.94461 15.8667H10.832V13.8667ZM9.04892 11.8965L7.63471 10.4823L6.28921 11.8278L7.56606 13.2386L9.04892 11.8965ZM11.7333 9.21214L13.1475 7.79793L11.7333 6.38373L10.3191 7.79792L11.7333 9.21214ZM13.8667 11.3455H15.8667V10.5171L15.2809 9.93126L13.8667 11.3455ZM2.66667 3.06665H13.3333V-0.93335H2.66667V3.06665ZM13.3333 3.06665C13.1124 3.06665 12.9333 2.88759 12.9333 2.66665H16.9333C16.9333 0.678396 15.3215 -0.93335 13.3333 -0.93335V3.06665ZM12.9333 2.66665V13.3333H16.9333V2.66665H12.9333ZM12.9333 13.3333C12.9333 13.1124 13.1124 12.9333 13.3333 12.9333V16.9333C15.3215 16.9333 16.9333 15.3215 16.9333 13.3333H12.9333ZM13.3333 12.9333H2.66667V16.9333H13.3333V12.9333ZM2.66667 12.9333C2.8876 12.9333 3.06667 13.1124 3.06667 13.3333H-0.933334C-0.933334 15.3215 0.678411 16.9333 2.66667 16.9333V12.9333ZM3.06667 13.3333V2.66665H-0.933334V13.3333H3.06667ZM3.06667 2.66665C3.06667 2.88756 2.88758 3.06665 2.66667 3.06665V-0.93335C0.678438 -0.93335 -0.933334 0.678422 -0.933334 2.66665H3.06667ZM2.66667 0.133317C1.26755 0.133317 0.133332 1.26753 0.133332 2.66665H4.13333C4.13333 3.47667 3.47669 4.13332 2.66667 4.13332V0.133317ZM0.133332 2.66665V8.92116H4.13333V2.66665H0.133332ZM3.54755 10.3354L5.34147 8.54145L2.51304 5.71302L0.719119 7.50694L3.54755 10.3354ZM5.34147 8.54145C5.04997 8.83295 4.6526 8.99352 4.24051 8.98643L4.30934 4.98702C3.63693 4.97545 2.98862 5.23744 2.51304 5.71302L5.34147 8.54145ZM4.24067 8.98643C3.82843 8.97937 3.43678 8.80516 3.1555 8.50381L6.0796 5.77441C5.62067 5.28274 4.9817 4.99854 4.30918 4.98702L4.24067 8.98643ZM3.15555 8.50386L6.93645 12.5542L9.86045 9.82467L6.07955 5.77435L3.15555 8.50386ZM9.81268 12.6036L12.8081 9.6081L9.97969 6.7797L6.98423 9.77522L9.81268 12.6036ZM12.8083 9.608C12.2146 10.2018 11.2521 10.2018 10.6584 9.608L13.4871 6.77981C12.5186 5.81116 10.9481 5.81116 9.97958 6.77981L12.8083 9.608ZM10.6585 9.60812L12.4525 11.402L15.2809 8.57361L13.487 6.77969L10.6585 9.60812ZM15.8667 9.98782V2.66665H11.8667V9.98782H15.8667ZM15.8667 2.66665C15.8667 1.26743 14.7323 0.133317 13.3333 0.133317V4.13332C12.5234 4.13332 11.8667 3.47677 11.8667 2.66665H15.8667ZM13.3333 0.133317H2.66667V4.13332H13.3333V0.133317ZM4.13333 13.3333V10.2788H0.133332V13.3333H4.13333ZM3.54755 11.693L5.66901 9.57156L2.84058 6.74314L0.719119 8.8646L3.54755 11.693ZM2.7928 9.52212L6.57118 13.5697L9.49516 10.8401L5.71678 6.79258L2.7928 9.52212ZM6.55034 13.547L8.05437 15.2087L11.02 12.5246L9.51601 10.8628L6.55034 13.547ZM9.5372 11.8667H2.66667V15.8667H9.5372V11.8667ZM2.66667 11.8667C3.47679 11.8667 4.13333 12.5234 4.13333 13.3333H0.133332C0.133332 14.7323 1.26744 15.8667 2.66667 15.8667V11.8667ZM13.3333 11.8667H10.832V15.8667H13.3333V11.8667ZM12.3149 12.5246L10.5318 10.5545L7.56606 13.2386L9.34914 15.2087L12.3149 12.5246ZM10.4631 13.3107L13.1475 10.6264L10.3191 7.79792L7.63471 10.4823L10.4631 13.3107ZM10.3191 10.6264L12.4525 12.7597L15.2809 9.93126L13.1475 7.79793L10.3191 10.6264ZM11.8667 11.3455V13.3333H15.8667V11.3455H11.8667ZM11.8667 13.3333C11.8667 12.5233 12.5233 11.8667 13.3333 11.8667V15.8667C14.7324 15.8667 15.8667 14.7324 15.8667 13.3333H11.8667ZM9.0925 5.86665C9.0925 6.47003 8.60337 6.95915 8 6.95915V2.95915C6.39424 2.95915 5.0925 4.26089 5.0925 5.86665H9.0925ZM8 6.95915C7.39662 6.95915 6.9075 6.47002 6.9075 5.86665H10.9075C10.9075 4.26089 9.60577 2.95915 8 2.95915V6.95915ZM6.9075 5.86665C6.9075 5.26328 7.39662 4.77415 8 4.77415V8.77415C9.60577 8.77415 10.9075 7.47241 10.9075 5.86665H6.9075ZM8 4.77415C8.60337 4.77415 9.0925 5.26328 9.0925 5.86665H5.0925C5.0925 7.47241 6.39424 8.77415 8 8.77415V4.77415ZM8 1.99915C5.86404 1.99915 4.1325 3.73069 4.1325 5.86665H8.1325C8.1325 5.93983 8.07318 5.99915 8 5.99915V1.99915ZM4.1325 5.86665C4.1325 8.00261 5.86404 9.73415 8 9.73415V5.73415C8.07318 5.73415 8.1325 5.79347 8.1325 5.86665H4.1325ZM8 9.73415C10.136 9.73415 11.8675 8.00261 11.8675 5.86665H7.8675C7.8675 5.79347 7.92682 5.73415 8 5.73415V9.73415ZM11.8675 5.86665C11.8675 3.73069 10.136 1.99915 8 1.99915V5.99915C7.92682 5.99915 7.8675 5.93983 7.8675 5.86665H11.8675Z" fill="#09090B" fill-opacity="0.5" mask="url(#path-1-inside-1_4147_4644)"/>
</svg>
