<svg width="12" height="4" viewBox="0 0 12 4" fill="none" xmlns="http://www.w3.org/2000/svg">
<path d="M5.99984 2.66659C6.36803 2.66659 6.6665 2.36811 6.6665 1.99992C6.6665 1.63173 6.36803 1.33325 5.99984 1.33325C5.63165 1.33325 5.33317 1.63173 5.33317 1.99992C5.33317 2.36811 5.63165 2.66659 5.99984 2.66659Z" stroke="#71717A" stroke-linecap="round" stroke-linejoin="round"/>
<path d="M10.6665 2.66659C11.0347 2.66659 11.3332 2.36811 11.3332 1.99992C11.3332 1.63173 11.0347 1.33325 10.6665 1.33325C10.2983 1.33325 9.99984 1.63173 9.99984 1.99992C9.99984 2.36811 10.2983 2.66659 10.6665 2.66659Z" stroke="#71717A" stroke-linecap="round" stroke-linejoin="round"/>
<path d="M1.33317 2.66659C1.70136 2.66659 1.99984 2.36811 1.99984 1.99992C1.99984 1.63173 1.70136 1.33325 1.33317 1.33325C0.964981 1.33325 0.666504 1.63173 0.666504 1.99992C0.666504 2.36811 0.964981 2.66659 1.33317 2.66659Z" stroke="#71717A" stroke-linecap="round" stroke-linejoin="round"/>
</svg>
