<svg width="16" height="16" viewBox="0 0 16 16" fill="none" xmlns="http://www.w3.org/2000/svg">
<g opacity="0.5">
<path d="M13.7105 13.7105L13.357 13.3568C13.3439 13.3699 13.3227 13.3699 13.3096 13.3568L10.283 10.33L9.9665 10.0136L9.61704 10.2932C8.88136 10.8817 7.94909 11.2333 6.9333 11.2333C4.55848 11.2333 2.6333 9.30812 2.6333 6.9333C2.6333 4.55848 4.55848 2.6333 6.9333 2.6333C9.30812 2.6333 11.2333 4.55848 11.2333 6.9333C11.2333 7.94909 10.8817 8.88136 10.2932 9.61704L10.0136 9.9665L10.33 10.283L13.3568 13.3096C13.3699 13.3227 13.3699 13.3439 13.3568 13.357L13.7105 13.7105ZM13.7105 13.7105C13.9187 13.5022 13.9187 13.1644 13.7105 12.9561L12.9561 13.7105C13.1644 13.9187 13.5022 13.9187 13.7105 13.7105ZM6.9333 11.1666C9.27131 11.1666 11.1666 9.27131 11.1666 6.9333C11.1666 4.59529 9.27131 2.69997 6.9333 2.69997C4.59529 2.69997 2.69997 4.59529 2.69997 6.9333C2.69997 9.27131 4.59529 11.1666 6.9333 11.1666Z" fill="#09090B" stroke="#09090B"/>
</g>
</svg>
