<svg width="77" height="29" viewBox="0 0 77 29" fill="none" xmlns="http://www.w3.org/2000/svg">
<rect x="1.02187" y="1.01967" width="74.9223" height="26.9654" rx="13.4827" stroke="black" stroke-opacity="0.1" stroke-width="0.883575"/>
<mask id="mask0_92_188" style="mask-type:alpha" maskUnits="userSpaceOnUse" x="6" y="6" width="17" height="17">
<rect x="6.80908" y="6.80469" width="15.3957" height="15.3957" fill="#D9D9D9"/>
</mask>
<g mask="url(#mask0_92_188)">
<path d="M14.025 14.9854H10.8175C10.6812 14.9854 10.567 14.9392 10.4748 14.847C10.3826 14.7547 10.3364 14.6404 10.3364 14.5041C10.3364 14.3677 10.3826 14.2534 10.4748 14.1614C10.567 14.0692 10.6812 14.0231 10.8175 14.0231H14.025V10.8157C14.025 10.6794 14.0711 10.5652 14.1634 10.473C14.2556 10.3807 14.3699 10.3346 14.5063 10.3346C14.6427 10.3346 14.7569 10.3807 14.849 10.473C14.9411 10.5652 14.9872 10.6794 14.9872 10.8157V14.0231H18.1947C18.331 14.0231 18.4452 14.0693 18.5374 14.1616C18.6296 14.2538 18.6758 14.3681 18.6758 14.5044C18.6758 14.6408 18.6296 14.7551 18.5374 14.8471C18.4452 14.9393 18.331 14.9854 18.1947 14.9854H14.9872V18.1928C14.9872 18.3291 14.9411 18.4434 14.8488 18.5355C14.7565 18.6278 14.6423 18.6739 14.5059 18.6739C14.3695 18.6739 14.2553 18.6278 14.1632 18.5355C14.0711 18.4434 14.025 18.3291 14.025 18.1928V14.9854Z" fill="#1C1B1F"/>
</g>
<path d="M33.4014 12.3692C33.3546 11.9534 33.1613 11.6312 32.8216 11.4028C32.4819 11.1715 32.0543 11.0558 31.5389 11.0558C31.1699 11.0558 30.8507 11.1144 30.5813 11.2315C30.3119 11.3457 30.1025 11.5039 29.9531 11.7059C29.8067 11.9051 29.7335 12.132 29.7335 12.3868C29.7335 12.6006 29.7833 12.7851 29.8828 12.9403C29.9853 13.0955 30.1186 13.2258 30.2826 13.3313C30.4495 13.4337 30.6281 13.5201 30.8185 13.5904C31.0089 13.6578 31.1919 13.7134 31.3676 13.7574L32.2461 13.9858C32.5331 14.0561 32.8275 14.1512 33.1291 14.2713C33.4307 14.3914 33.7104 14.5495 33.9681 14.7457C34.2258 14.9419 34.4337 15.185 34.5919 15.4749C34.753 15.7648 34.8335 16.1119 34.8335 16.516C34.8335 17.0256 34.7017 17.478 34.4381 17.8734C34.1775 18.2687 33.7983 18.5806 33.3004 18.809C32.8055 19.0375 32.2066 19.1517 31.5038 19.1517C30.8302 19.1517 30.2474 19.0448 29.7554 18.831C29.2635 18.6172 28.8784 18.3141 28.6001 17.9217C28.3219 17.5263 28.1682 17.0578 28.1389 16.516H29.5007C29.527 16.8411 29.6324 17.112 29.8169 17.3287C30.0044 17.5425 30.243 17.7021 30.533 17.8075C30.8258 17.91 31.1465 17.9612 31.495 17.9612C31.8786 17.9612 32.2198 17.9012 32.5185 17.7811C32.8201 17.6581 33.0573 17.4883 33.2301 17.2716C33.4029 17.0519 33.4893 16.7957 33.4893 16.5028C33.4893 16.2363 33.4132 16.0182 33.2609 15.8483C33.1115 15.6785 32.908 15.5379 32.6503 15.4266C32.3955 15.3153 32.107 15.2172 31.7849 15.1323L30.7219 14.8424C30.0014 14.6462 29.4304 14.3577 29.0087 13.977C28.5899 13.5963 28.3805 13.0926 28.3805 12.4659C28.3805 11.9475 28.5211 11.4951 28.8022 11.1085C29.0834 10.7219 29.4641 10.4218 29.9443 10.208C30.4246 9.99128 30.9664 9.88293 31.5697 9.88293C32.1788 9.88293 32.7162 9.98982 33.1818 10.2036C33.6504 10.4174 34.0194 10.7117 34.2888 11.0865C34.5582 11.4585 34.6988 11.886 34.7105 12.3692H33.4014ZM39.1591 19.1385C38.4944 19.1385 37.9219 18.9965 37.4416 18.7124C36.9642 18.4254 36.5952 18.0227 36.3346 17.5044C36.0769 16.9831 35.948 16.3725 35.948 15.6726C35.948 14.9815 36.0769 14.3723 36.3346 13.8452C36.5952 13.3181 36.9584 12.9066 37.424 12.6108C37.8926 12.3151 38.4402 12.1672 39.0669 12.1672C39.4476 12.1672 39.8166 12.2301 40.1739 12.3561C40.5312 12.482 40.8518 12.6797 41.1359 12.9491C41.42 13.2185 41.644 13.5685 41.808 13.999C41.972 14.4265 42.054 14.9463 42.054 15.5584V16.024H36.6904V15.04H40.7669C40.7669 14.6945 40.6966 14.3884 40.556 14.122C40.4155 13.8525 40.2178 13.6402 39.963 13.485C39.7112 13.3298 39.4154 13.2522 39.0757 13.2522C38.7067 13.2522 38.3846 13.343 38.1093 13.5245C37.8369 13.7032 37.6261 13.9375 37.4767 14.2274C37.3303 14.5144 37.2571 14.8263 37.2571 15.163V15.9318C37.2571 16.3828 37.3361 16.7664 37.4943 17.0827C37.6554 17.399 37.8794 17.6406 38.1664 17.8075C38.4534 17.9715 38.7887 18.0535 39.1723 18.0535C39.4213 18.0535 39.6482 18.0183 39.8532 17.9481C40.0582 17.8748 40.2354 17.7665 40.3847 17.623C40.5341 17.4795 40.6483 17.3023 40.7274 17.0915L41.9705 17.3155C41.871 17.6816 41.6923 18.0022 41.4346 18.2775C41.1798 18.5499 40.8592 18.7622 40.4726 18.9145C40.089 19.0638 39.6511 19.1385 39.1591 19.1385ZM46.5619 12.255V13.3093H42.8764V12.255H46.5619ZM43.8648 10.6385H45.1782V17.0212C45.1782 17.276 45.2163 17.4678 45.2924 17.5966C45.3686 17.7226 45.4667 17.8089 45.5867 17.8558C45.7097 17.8997 45.843 17.9217 45.9865 17.9217C46.0919 17.9217 46.1842 17.9144 46.2632 17.8997C46.3423 17.8851 46.4038 17.8734 46.4477 17.8646L46.6849 18.9496C46.6088 18.9789 46.5004 19.0082 46.3599 19.0375C46.2193 19.0697 46.0436 19.0872 45.8327 19.0902C45.4872 19.096 45.165 19.0345 44.8663 18.9057C44.5676 18.7768 44.326 18.5777 44.1415 18.3083C43.957 18.0388 43.8648 17.7006 43.8648 17.2935V10.6385ZM51.6618 14.6315V15.7692H47.6732V14.6315H51.6618ZM57.5876 16.2041V12.255H58.9054V19.0023H57.6139V17.8338H57.5436C57.3884 18.194 57.1395 18.4942 56.7969 18.7344C56.4571 18.9716 56.034 19.0902 55.5273 19.0902C55.0939 19.0902 54.7103 18.995 54.3764 18.8046C54.0455 18.6114 53.7849 18.3258 53.5945 17.9481C53.4071 17.5703 53.3134 17.1032 53.3134 16.5468V12.255H54.6268V16.3886C54.6268 16.8484 54.7542 17.2145 55.009 17.4868C55.2638 17.7592 55.5947 17.8953 56.0018 17.8953C56.2478 17.8953 56.4923 17.8338 56.7354 17.7108C56.9814 17.5878 57.1849 17.4019 57.346 17.153C57.5099 16.904 57.5905 16.5878 57.5876 16.2041ZM60.5712 21.5326V12.255H61.8539V13.3488H61.9637C62.0399 13.2083 62.1497 13.0457 62.2932 12.8612C62.4367 12.6767 62.6358 12.5157 62.8906 12.378C63.1454 12.2375 63.4822 12.1672 63.9009 12.1672C64.4456 12.1672 64.9318 12.3048 65.3593 12.5801C65.7869 12.8554 66.1222 13.2522 66.3653 13.7705C66.6113 14.2889 66.7343 14.9126 66.7343 15.6418C66.7343 16.371 66.6127 16.9963 66.3697 17.5176C66.1266 18.0359 65.7928 18.4357 65.3681 18.7168C64.9435 18.995 64.4588 19.1341 63.9141 19.1341C63.5041 19.1341 63.1688 19.0653 62.9082 18.9276C62.6505 18.79 62.4484 18.6289 62.302 18.4444C62.1555 18.2599 62.0428 18.0959 61.9637 17.9524H61.8847V21.5326H60.5712ZM61.8583 15.6287C61.8583 16.1031 61.9271 16.5189 62.0648 16.8762C62.2024 17.2335 62.4015 17.5132 62.6622 17.7152C62.9228 17.9144 63.242 18.0139 63.6198 18.0139C64.0122 18.0139 64.3402 17.91 64.6038 17.7021C64.8674 17.4912 65.0665 17.2057 65.2012 16.8455C65.3388 16.4853 65.4077 16.0797 65.4077 15.6287C65.4077 15.1835 65.3403 14.7838 65.2056 14.4294C65.0738 14.0751 64.8747 13.7954 64.6082 13.5904C64.3446 13.3854 64.0152 13.2829 63.6198 13.2829C63.2391 13.2829 62.917 13.381 62.6534 13.5772C62.3928 13.7735 62.1951 14.0473 62.0604 14.3987C61.9257 14.7501 61.8583 15.1601 61.8583 15.6287Z" fill="#1C1B1F"/>
</svg>
