<svg width="20" height="20" viewBox="0 0 20 20" fill="none" xmlns="http://www.w3.org/2000/svg">
<mask id="mask0_103_12749" style="mask-type:alpha" maskUnits="userSpaceOnUse" x="0" y="0" width="20" height="20">
<rect width="20" height="20" fill="#D9D9D9"/>
</mask>
<g mask="url(#mask0_103_12749)">
<path d="M8.25987 10.3429H6.43168C6.08733 10.2684 5.63035 10.2979 5.24649 10.6571C4.88156 10.9987 4.80135 11.4321 4.82176 11.8018L2.42152 15.2457H17.5426L15.1681 11.9789L15.452 11.4129L15.5882 11.306L19 16H1L5.46878 9.58857H7.88L8.25987 10.3429ZM12.3849 9.58857C12.3383 9.82271 12.3646 10.1197 12.443 10.3429H11.6242L12.0342 9.58857H12.3849Z" fill="black"/>
<path d="M9.96081 5C11.1959 5 12.1971 6.04126 12.1971 7.32571C12.1971 7.76571 12.0158 8.70857 9.96081 11.9771C9.21538 10.8876 7.72453 8.432 7.72453 7.32571C7.72453 6.04126 8.72575 5 9.96081 5ZM9.96081 6.13143C9.32659 6.13143 8.81245 6.66613 8.81245 7.32571C8.81245 7.9853 9.32659 8.52 9.96081 8.52C10.595 8.52 11.1092 7.9853 11.1092 7.32571C11.1092 6.66613 10.595 6.13143 9.96081 6.13143Z" fill="black"/>
<path d="M14.1715 8.52C14.8836 8.52002 15.4608 9.12042 15.4608 9.86099C15.4608 10.1147 15.3563 10.6584 14.1715 12.5429C13.7417 11.9147 12.8821 10.4989 12.8821 9.86099C12.8821 9.12041 13.4594 8.52 14.1715 8.52ZM14.1714 9.17239C13.8057 9.17239 13.5093 9.48069 13.5093 9.86099C13.5093 10.2413 13.8058 10.5496 14.1714 10.5496C14.5371 10.5496 14.8335 10.2413 14.8335 9.86099C14.8335 9.4807 14.5371 9.1724 14.1714 9.17239Z" fill="black"/>
<path d="M6.25379 10.5944C6.86572 10.5944 7.36187 11.1103 7.36189 11.7467C7.36189 11.9647 7.27197 12.4319 6.25379 14.0514C5.88444 13.5116 5.1458 12.2948 5.1458 11.7467C5.14582 11.1103 5.64187 10.5944 6.25379 10.5944ZM6.25379 11.155C5.93956 11.155 5.68482 11.4199 5.6848 11.7467C5.6848 12.0735 5.93954 12.3384 6.25379 12.3384C6.56802 12.3384 6.82277 12.0735 6.82277 11.7467C6.82275 11.4199 6.56801 11.155 6.25379 11.155Z" fill="black"/>
</g>
</svg>
