<svg width="20" height="20" viewBox="0 0 20 20" fill="none" xmlns="http://www.w3.org/2000/svg">
<mask id="mask0_719_901" style="mask-type:alpha" maskUnits="userSpaceOnUse" x="0" y="0" width="20" height="20">
<rect width="20" height="20" fill="#D9D9D9"/>
</mask>
<g mask="url(#mask0_719_901)">
<path d="M10.6738 1.625C10.8261 1.625 10.9552 1.67694 11.0609 1.78083C11.1667 1.88458 11.2196 2.01319 11.2196 2.16667V9.25C11.2196 9.40347 11.1681 9.53208 11.065 9.63583C10.962 9.73972 10.8343 9.79167 10.6821 9.79167C10.5297 9.79167 10.4006 9.73972 10.2948 9.63583C10.1891 9.53208 10.1363 9.40347 10.1363 9.25V2.16667C10.1363 2.01319 10.1878 1.88458 10.2909 1.78083C10.3939 1.67694 10.5215 1.625 10.6738 1.625ZM7.81002 2.625C7.96238 2.625 8.09141 2.67694 8.1971 2.78083C8.30294 2.88458 8.35585 3.01319 8.35585 3.16667V9.25C8.35585 9.40347 8.30433 9.53208 8.20127 9.63583C8.09822 9.73972 7.97051 9.79167 7.81815 9.79167C7.66592 9.79167 7.5369 9.73972 7.43106 9.63583C7.32537 9.53208 7.27252 9.40347 7.27252 9.25V3.16667C7.27252 3.01319 7.32405 2.88458 7.4271 2.78083C7.53002 2.67694 7.65766 2.625 7.81002 2.625ZM10.5061 18.5833C8.81398 18.5833 7.37606 17.9929 6.19231 16.8121C5.00856 15.6311 4.41669 14.1938 4.41669 12.5V4.95833C4.41669 4.80486 4.46821 4.67625 4.57127 4.5725C4.67433 4.46861 4.80196 4.41667 4.95419 4.41667C5.10655 4.41667 5.23558 4.46861 5.34127 4.5725C5.4471 4.67625 5.50002 4.80486 5.50002 4.95833V12.5C5.50002 13.8889 5.98613 15.0694 6.95835 16.0417C7.93058 17.0139 9.11113 17.5 10.5 17.5C11.8889 17.5 13.0695 17.0139 14.0417 16.0417C15.0139 15.0694 15.5 13.8889 15.5 12.5V9.29167H15.2917C14.9604 9.29167 14.6763 9.40889 14.4392 9.64333C14.202 9.87764 14.0834 10.1632 14.0834 10.5V12.6315C14.0834 12.8212 14.0191 12.9803 13.8906 13.1087C13.7623 13.2371 13.6032 13.3012 13.4134 13.3012H11.7821C11.2367 13.3012 10.774 13.4913 10.394 13.8715C10.0138 14.2515 9.82377 14.7142 9.82377 15.2596V15.5513C9.82377 15.7047 9.77224 15.8333 9.66919 15.9371C9.56613 16.041 9.43849 16.0929 9.28627 16.0929C9.13391 16.0929 9.00481 16.041 8.89898 15.9371C8.79328 15.8333 8.74044 15.7047 8.74044 15.5513V15.2596C8.74044 14.4103 9.03502 13.691 9.62419 13.1017C10.2135 12.5125 10.9328 12.2179 11.7821 12.2179H13V4.16667C13 4.01319 13.0515 3.88458 13.1546 3.78083C13.2577 3.67694 13.3853 3.625 13.5375 3.625C13.6899 3.625 13.8189 3.67694 13.9246 3.78083C14.0304 3.88458 14.0834 4.01319 14.0834 4.16667V8.57688C14.2521 8.4541 14.4427 8.36194 14.6552 8.30042C14.8679 8.23903 15.08 8.20833 15.2917 8.20833H15.9134C16.1032 8.20833 16.2623 8.2725 16.3906 8.40083C16.5191 8.52931 16.5834 8.6884 16.5834 8.87813V12.5C16.5834 14.1938 15.9935 15.6311 14.8138 16.8121C13.634 17.9929 12.1981 18.5833 10.5061 18.5833Z" fill="#464B52"/>
</g>
</svg>
