<svg width="20" height="20" viewBox="0 0 20 20" fill="none" xmlns="http://www.w3.org/2000/svg">
<path d="M2.83643 19.2347C2.13776 19.2347 1.54643 18.9927 1.06243 18.5087C0.578426 18.0247 0.336426 17.4333 0.336426 16.7347V15.6577C0.336426 15.159 0.513009 14.7331 0.866176 14.3799C1.21951 14.0268 1.64551 13.8502 2.14418 13.8502H3.33643V2.04243C3.33643 1.54376 3.51301 1.11776 3.86618 0.76443C4.21951 0.411264 4.64551 0.23468 5.14418 0.23468H15.5287C16.0273 0.23468 16.4533 0.411264 16.8067 0.76443C17.1598 1.11776 17.3364 1.54376 17.3364 2.04243V10.0424C17.3364 10.2553 17.2646 10.4334 17.1209 10.5769C16.9774 10.7206 16.7993 10.7924 16.5864 10.7924C16.3736 10.7924 16.1954 10.7206 16.0519 10.5769C15.9083 10.4334 15.8364 10.2553 15.8364 10.0424V2.04243C15.8364 1.9526 15.8076 1.87885 15.7499 1.82118C15.6923 1.76351 15.6185 1.73468 15.5287 1.73468H5.14418C5.05434 1.73468 4.98059 1.76351 4.92293 1.82118C4.86526 1.87885 4.83643 1.9526 4.83643 2.04243V13.8502H10.3077C10.5205 13.8502 10.6987 13.9219 10.8422 14.0654C10.9858 14.2091 11.0577 14.3873 11.0577 14.5999C11.0577 14.8128 10.9858 14.991 10.8422 15.1347C10.6987 15.2782 10.5205 15.3499 10.3077 15.3499H2.14418C2.05434 15.3499 1.98059 15.3788 1.92293 15.4367C1.86526 15.4943 1.83643 15.568 1.83643 15.6577V16.7347C1.83643 17.018 1.93226 17.2555 2.12393 17.4472C2.31559 17.6388 2.55309 17.7347 2.83643 17.7347H10.3077C10.5205 17.7347 10.6987 17.8065 10.8422 17.9502C10.9858 18.0937 11.0577 18.2718 11.0577 18.4847C11.0577 18.6975 10.9858 18.8757 10.8422 19.0192C10.6987 19.1628 10.5205 19.2347 10.3077 19.2347H2.83643ZM10.9902 17.7347H1.83643H10.6979H10.6769H10.9902ZM6.77868 6.42693C6.56584 6.42693 6.38768 6.35518 6.24418 6.21168C6.10051 6.06801 6.02868 5.88976 6.02868 5.67693C6.02868 5.4641 6.10051 5.28593 6.24418 5.14243C6.38768 4.99876 6.56584 4.92693 6.77868 4.92693H13.8942C14.107 4.92693 14.2852 4.99876 14.4287 5.14243C14.5723 5.28593 14.6442 5.4641 14.6442 5.67693C14.6442 5.88976 14.5723 6.06801 14.4287 6.21168C14.2852 6.35518 14.107 6.42693 13.8942 6.42693H6.77868ZM6.77868 9.31168C6.56584 9.31168 6.38768 9.23985 6.24418 9.09618C6.10051 8.95268 6.02868 8.77451 6.02868 8.56168C6.02868 8.34885 6.10051 8.1706 6.24418 8.02693C6.38768 7.88343 6.56584 7.81168 6.77868 7.81168H13.8942C14.107 7.81168 14.2852 7.88343 14.4287 8.02693C14.5723 8.1706 14.6442 8.34885 14.6442 8.56168C14.6442 8.77451 14.5723 8.95268 14.4287 9.09618C14.2852 9.23985 14.107 9.31168 13.8942 9.31168H6.77868Z" fill="#1C1B1F"/>
<path d="M15.2364 16.1462L18.2594 13.1232C18.3979 12.9847 18.572 12.9138 18.7817 12.9107C18.9912 12.9075 19.1684 12.9783 19.3134 13.1232C19.4582 13.268 19.5307 13.4436 19.5307 13.6499C19.5307 13.8564 19.4582 14.0321 19.3134 14.1769L15.8692 17.6212C15.6883 17.802 15.4774 17.8924 15.2364 17.8924C14.9954 17.8924 14.7845 17.802 14.6037 17.6212L13.3094 16.3269C13.1711 16.1884 13.1002 16.0144 13.0969 15.8049C13.0937 15.5953 13.1646 15.418 13.3094 15.2732C13.4544 15.1283 13.6301 15.0559 13.8364 15.0559C14.0427 15.0559 14.2184 15.1283 14.3634 15.2732L15.2364 16.1462Z" fill="#1C1B1F"/>
</svg>
