<svg width="11" height="15" viewBox="0 0 11 15" fill="none" xmlns="http://www.w3.org/2000/svg">
<path d="M2.80437 14.4485C2.46368 14.4485 2.17021 14.3254 1.92396 14.0792C1.67771 13.8329 1.55458 13.5394 1.55458 13.1985H4.79167V10.7948C3.41667 10.6292 2.27431 10.0374 1.36458 9.01917C0.454861 8.00097 0 6.80014 0 5.41667C0 3.90764 0.525417 2.62764 1.57625 1.57667C2.62694 0.525557 3.9066 0 5.41521 0C6.92368 0 8.20382 0.525557 9.25562 1.57667C10.3074 2.62764 10.8333 3.90764 10.8333 5.41667C10.8333 6.80014 10.3785 8.00097 9.46875 9.01917C8.55903 10.0374 7.41667 10.6292 6.04167 10.7948V13.1985H9.27875C9.27875 13.5394 9.15562 13.8329 8.90937 14.0792C8.66313 14.3254 8.36965 14.4485 8.02896 14.4485H2.80437ZM5.41667 9.58333C6.56944 9.58333 7.55208 9.17708 8.36458 8.36458C9.17708 7.55208 9.58333 6.56945 9.58333 5.41667C9.58333 4.26389 9.17708 3.28125 8.36458 2.46875C7.55208 1.65625 6.56944 1.25 5.41667 1.25C4.26389 1.25 3.28125 1.65625 2.46875 2.46875C1.65625 3.28125 1.25 4.26389 1.25 5.41667C1.25 6.56945 1.65625 7.55208 2.46875 8.36458C3.28125 9.17708 4.26389 9.58333 5.41667 9.58333ZM5.41667 6.84292C5.02444 6.84292 4.68868 6.70327 4.40937 6.42396C4.13007 6.14465 3.99042 5.80889 3.99042 5.41667C3.99042 5.02445 4.13007 4.68868 4.40937 4.40938C4.68868 4.13007 5.02444 3.99042 5.41667 3.99042C5.80889 3.99042 6.14465 4.13007 6.42396 4.40938C6.70326 4.68868 6.84292 5.02445 6.84292 5.41667C6.84292 5.80889 6.70326 6.14465 6.42396 6.42396C6.14465 6.70327 5.80889 6.84292 5.41667 6.84292Z" fill="#1C1B1F"/>
</svg>
