<svg width="20" height="20" viewBox="0 0 20 20" fill="none" xmlns="http://www.w3.org/2000/svg">
<mask id="mask0_103_12771" style="mask-type:alpha" maskUnits="userSpaceOnUse" x="0" y="0" width="20" height="20">
<rect width="20" height="20" fill="#D9D9D9"/>
</mask>
<g mask="url(#mask0_103_12771)">
<path d="M8.33325 9.74349C7.53117 9.74349 6.84457 9.45793 6.27346 8.88682C5.70221 8.31557 5.41659 7.62891 5.41659 6.82682C5.41659 6.02474 5.70221 5.33814 6.27346 4.76703C6.84457 4.19578 7.53117 3.91016 8.33325 3.91016C9.13534 3.91016 9.82193 4.19578 10.393 4.76703C10.9643 5.33814 11.2499 6.02474 11.2499 6.82682C11.2499 7.62891 10.9643 8.31557 10.393 8.88682C9.82193 9.45793 9.13534 9.74349 8.33325 9.74349ZM2.08325 16.0897V14.237C2.08325 13.8162 2.19061 13.4351 2.40534 13.0937C2.62006 12.7523 2.91978 12.4881 3.3045 12.3012C3.99672 11.9562 4.74457 11.668 5.54804 11.4366C6.35138 11.2054 7.27978 11.0897 8.33325 11.0897H8.57679C8.64415 11.0897 8.71679 11.0983 8.79471 11.1154C8.7104 11.3119 8.64075 11.5122 8.58575 11.7162C8.53061 11.9204 8.48492 12.1282 8.44867 12.3397H8.33325C7.37381 12.3397 6.52443 12.45 5.78513 12.6706C5.04582 12.8913 4.41013 13.1399 3.87804 13.4166C3.68902 13.5181 3.55096 13.6368 3.46388 13.7724C3.37679 13.9081 3.33325 14.063 3.33325 14.237V14.8397H8.58325C8.6452 15.0513 8.72561 15.266 8.8245 15.4839C8.92325 15.7018 9.03193 15.9038 9.15054 16.0897H2.08325ZM13.4214 16.7066L13.2355 15.6008C13.0368 15.542 12.8498 15.4652 12.6745 15.3702C12.4994 15.275 12.3327 15.1559 12.1745 15.0127L11.1185 15.3797L10.5255 14.3716L11.3878 13.6666C11.328 13.4508 11.298 13.2381 11.298 13.0287C11.298 12.8194 11.328 12.6068 11.3878 12.391L10.5337 11.6697L11.1266 10.6618L12.1745 11.0368C12.3273 10.8936 12.4926 10.7759 12.6705 10.6835C12.8485 10.591 13.0368 10.5154 13.2355 10.4566L13.4214 9.35099H14.6072L14.7851 10.4566C14.9839 10.5154 15.1722 10.5931 15.3501 10.6899C15.5279 10.7866 15.6932 10.9108 15.846 11.0624L16.8941 10.6618L17.487 11.6954L16.6328 12.4166C16.6927 12.617 16.7226 12.8258 16.7226 13.0429C16.7226 13.2599 16.6927 13.4679 16.6328 13.6666L17.4951 14.3716L16.9022 15.3797L15.846 15.0127C15.6879 15.1559 15.5212 15.275 15.346 15.3702C15.1708 15.4652 14.9839 15.542 14.7851 15.6008L14.6072 16.7066H13.4214ZM14.007 14.6154C14.4435 14.6154 14.8169 14.4599 15.1272 14.1491C15.4376 13.8383 15.5928 13.4646 15.5928 13.0281C15.5928 12.5915 15.4374 12.2181 15.1266 11.9079C14.8158 11.5974 14.4421 11.4422 14.0055 11.4422C13.5692 11.4422 13.1958 11.5977 12.8853 11.9085C12.5749 12.2193 12.4197 12.593 12.4197 13.0295C12.4197 13.4659 12.5751 13.8393 12.886 14.1497C13.1968 14.4602 13.5705 14.6154 14.007 14.6154ZM8.33325 8.49349C8.79159 8.49349 9.18395 8.33029 9.51034 8.00391C9.83672 7.67752 9.99992 7.28516 9.99992 6.82682C9.99992 6.36849 9.83672 5.97613 9.51034 5.64974C9.18395 5.32335 8.79159 5.16016 8.33325 5.16016C7.87492 5.16016 7.48256 5.32335 7.15617 5.64974C6.82978 5.97613 6.66659 6.36849 6.66659 6.82682C6.66659 7.28516 6.82978 7.67752 7.15617 8.00391C7.48256 8.33029 7.87492 8.49349 8.33325 8.49349Z" fill="black"/>
</g>
</svg>
