<svg width="34" height="34" viewBox="0 0 34 34" fill="none" xmlns="http://www.w3.org/2000/svg">
<path fill-rule="evenodd" clip-rule="evenodd" d="M5.56403 0.893038C5.56403 0.945742 5.55656 0.996761 5.54257 1.04516L13.8575 8.13233C13.9197 8.11059 13.9869 8.09874 14.0569 8.09874C14.3803 8.09874 14.6426 8.35177 14.6426 8.66389C14.6426 8.97602 14.3803 9.22905 14.0569 9.22905C13.7334 9.22905 13.4712 8.97602 13.4712 8.66389C13.4712 8.64342 13.4723 8.6232 13.4745 8.60329L5.17677 1.42493C5.1148 1.44646 5.04799 1.4582 4.97833 1.4582C4.65485 1.4582 4.39263 1.20517 4.39263 0.893038C4.39263 0.58091 4.65485 0.327881 4.97833 0.327881C5.30181 0.327881 5.56403 0.58091 5.56403 0.893038ZM27.8943 15.0925L30.0766 13.3264H29.7978L29.1389 13.0438L28.846 12.2667L29.2853 12.1254L29.6514 12.6906L30.0907 12.7612L30.6764 12.5493L30.2371 12.408L30.4567 12.1254L29.7978 11.8429L29.2853 12.0548L28.7728 12.1961H28.1139L27.6746 13.2557L26.3568 13.9622L25.4782 18.766L23.2807 20.3563C23.2815 20.3679 23.2818 20.3795 23.2818 20.3912C23.2818 20.7033 23.0196 20.9564 22.6961 20.9564C22.3726 20.9564 22.1104 20.7033 22.1104 20.3912C22.1104 20.0791 22.3726 19.8261 22.6961 19.8261C22.7896 19.8261 22.8779 19.8472 22.9563 19.8847L24.8925 18.4835L25.2586 15.5164H25.3318L25.6247 14.4567L24.3068 15.1632H19.4748L16.473 12.6906L9.22492 12.8319L6.8821 10.8538H5.27142L0.911509 9.0607C0.854991 9.07822 0.794728 9.08768 0.732176 9.08768C0.4087 9.08768 0.146471 8.83465 0.146471 8.52253C0.146471 8.2104 0.4087 7.95737 0.732176 7.95737C1.05565 7.95737 1.31788 8.2104 1.31788 8.52253C1.31788 8.52994 1.31773 8.53732 1.31744 8.54466L5.27142 10.218H7.02853L9.44456 12.2667L16.6927 12.1254L19.9872 14.598L24.0872 14.5274L27.3086 12.8319L27.6746 11.8429L28.9192 11.6309L29.7978 11.2071L31.0424 11.7016L30.1639 10.9951L29.9442 10.7125L29.7978 10.9951L27.6746 11.7016L26.8693 11.5603L24.7461 12.1961L23.0109 13.8007L23.7943 13.7503L26.0643 12.3129C26.0777 12.0122 26.3346 11.7725 26.6494 11.7725C26.9729 11.7725 27.2352 12.0255 27.2352 12.3376C27.2352 12.6497 26.9729 12.9028 26.6494 12.9028C26.5531 12.9028 26.4621 12.8803 26.3819 12.8405L24.2336 14.2448L22.8426 14.3154L19.9872 13.3264L15.8141 10.2887H15.8052C15.721 10.3338 15.6241 10.3595 15.521 10.3595C15.4179 10.3595 15.321 10.3338 15.2368 10.2887H14.057L11.641 8.73449H7.76066L0.982285 2.67584C0.906437 2.71046 0.821649 2.72982 0.732176 2.72982C0.4087 2.72982 0.146471 2.47679 0.146471 2.16466C0.146471 1.85253 0.4087 1.5995 0.732176 1.5995C1.05565 1.5995 1.31788 1.85253 1.31788 2.16466C1.31788 2.1856 1.3167 2.20627 1.3144 2.22662L7.90709 8.09869H10.6892L9.59099 7.46288L8.27315 7.32159L5.34386 4.56237C5.32004 4.56521 5.29578 4.56668 5.27116 4.56668C4.94768 4.56668 4.68545 4.31365 4.68545 4.00152C4.68545 3.68939 4.94768 3.43636 5.27116 3.43636C5.59463 3.43636 5.85686 3.68939 5.85686 4.00152C5.85686 4.06506 5.84599 4.12615 5.82596 4.18316L8.49279 6.75644L9.81063 6.89773L14.1302 9.72351H14.9399C14.976 9.44483 15.2224 9.22922 15.521 9.22922C15.8445 9.22922 16.1067 9.48225 16.1067 9.79438C16.1067 9.824 16.1043 9.85309 16.0998 9.88148L20.3533 13.0438L22.6961 13.8209L22.9673 13.8035L22.5497 13.4677L24.2336 11.7722L25.194 11.489L24.7461 10.9951L25.6376 10.479C25.629 10.4405 25.6244 10.4005 25.6244 10.3595C25.6244 10.0474 25.8867 9.79434 26.2101 9.79434C26.5336 9.79434 26.7959 10.0474 26.7959 10.3595C26.7959 10.6716 26.5336 10.9247 26.2101 10.9247C26.1242 10.9247 26.0426 10.9068 25.9691 10.8747L25.3933 11.4303L26.8693 10.9951L27.7478 11.1364L29.3585 10.5006L25.5514 9.44093L25.7711 8.94642L29.2121 9.8648L30.6764 10.5006L30.6031 10.6419L31.4817 11.2777L32.1406 12.5493L31.921 12.6906V12.9025L31.4085 12.6906L31.344 12.7256L31.4817 12.8319L28.4068 15.3751L27.7017 18.5047C27.8616 18.6056 27.9673 18.78 27.9673 18.9781C27.9673 19.2902 27.705 19.5433 27.3816 19.5433C27.0581 19.5433 26.7959 19.2902 26.7959 18.9781C26.7959 18.7551 26.9297 18.5623 27.1241 18.4703L27.8943 15.0925ZM17.7409 32.2071C17.9031 32.3076 18.0105 32.4832 18.0105 32.683C18.0105 32.9951 17.7483 33.2481 17.4248 33.2481C17.1013 33.2481 16.8391 32.9951 16.8391 32.683C16.8391 32.4412 16.9964 32.2349 17.2176 32.1542L17.4248 29.2214L18.0105 28.4444V24.7708L20.8658 21.168H23.5747L25.5514 19.6138L26.1371 18.2715L26.2836 15.0925L27.8943 13.8916L28.1871 12.408L28.7728 12.4787L28.48 14.1035L26.8693 15.3751L26.7229 18.4835L25.9907 19.967L23.8675 21.7331L21.1587 21.8038L18.5962 24.9828L18.523 28.6563L18.0837 29.3627L17.7409 32.2071ZM13.3248 31.9767C13.3248 31.8866 13.3029 31.8014 13.2641 31.7258L16.3266 27.8086L16.3998 25.9011L20.0605 21.0267L24.5997 18.2009L24.4301 17.2193C24.6178 17.1251 24.7461 16.9357 24.7461 16.7175C24.7461 16.4054 24.4838 16.1523 24.1604 16.1523C23.8746 16.1523 23.6367 16.3497 23.5851 16.6109L21.8908 16.8586L21.964 17.4238L23.7943 17.2118L23.8675 17.9889L22.8762 18.605C22.947 18.5116 22.9888 18.3964 22.9888 18.2718C22.9888 17.9597 22.7265 17.7067 22.4031 17.7067C22.0796 17.7067 21.8174 17.9597 21.8174 18.2718L21.8174 18.2795L19.4748 19.4725L18.4498 20.6734H15.8821C15.7808 20.5046 15.5915 20.3909 15.3748 20.3909C15.0513 20.3909 14.7891 20.644 14.7891 20.9561C14.7891 21.2682 15.0513 21.5213 15.3748 21.5213C15.5916 21.5213 15.7809 21.4076 15.8822 21.2386H17.8641L16.1802 23.0754L14.8623 25.9718L13.4713 26.0424L9.75883 29.6247C9.68528 29.5925 9.60363 29.5747 9.51766 29.5747C9.19418 29.5747 8.93196 29.8277 8.93196 30.1398C8.93196 30.452 9.19418 30.705 9.51766 30.705C9.84114 30.705 10.1034 30.452 10.1034 30.1398C10.1034 30.1177 10.102 30.0958 10.0995 30.0744L13.7641 26.6076H15.1552L16.6927 23.3579L19.8408 19.967L22.094 18.752C22.1837 18.8059 22.2896 18.837 22.4031 18.837C22.4437 18.837 22.4833 18.833 22.5216 18.8254L19.548 20.6734L15.8141 25.7599L15.7409 27.5966L12.7216 31.4118C12.4062 31.4207 12.1534 31.6702 12.1534 31.9767C12.1534 32.2888 12.4156 32.5418 12.7391 32.5418C13.0626 32.5418 13.3248 32.2888 13.3248 31.9767ZM13.6668 32.5439L17.0587 27.8086L16.9163 26.7095C16.6996 26.6266 16.5462 26.4225 16.5462 26.1838C16.5462 25.8717 16.8085 25.6187 17.132 25.6187C17.4554 25.6187 17.7177 25.8717 17.7177 26.1838C17.7177 26.3568 17.6371 26.5117 17.5102 26.6154L17.7176 27.9498L14.149 32.869C14.1839 32.9413 14.2034 33.022 14.2034 33.1071C14.2034 33.4192 13.9412 33.6722 13.6177 33.6722C13.2942 33.6722 13.032 33.4192 13.032 33.1071C13.032 32.7949 13.2942 32.5419 13.6177 32.5419C13.6342 32.5419 13.6506 32.5426 13.6668 32.5439ZM11.4037 31.4149C11.4152 31.459 11.4213 31.5052 11.4213 31.5527C11.4213 31.8648 11.159 32.1179 10.8356 32.1179C10.5121 32.1179 10.2498 31.8648 10.2498 31.5527C10.2498 31.2406 10.5121 30.9875 10.8356 30.9875C10.8573 30.9875 10.8787 30.9887 10.8998 30.9909L14.0905 27.6444C14.0688 27.5854 14.0571 27.5219 14.0571 27.4557C14.0571 27.1436 14.3193 26.8905 14.6428 26.8905C14.9662 26.8905 15.2285 27.1436 15.2285 27.4557C15.2285 27.7678 14.9662 28.0208 14.6428 28.0208C14.6213 28.0208 14.6002 28.0197 14.5794 28.0176L11.4037 31.4149ZM13.9115 24.8056L8.9904 27.7734C8.9267 27.7505 8.85775 27.7379 8.78577 27.7379C8.46229 27.7379 8.20006 27.991 8.20006 28.3031C8.20006 28.6152 8.46229 28.8682 8.78577 28.8682C9.10924 28.8682 9.37147 28.6152 9.37147 28.3031L9.37125 28.2874L14.3915 25.3271C14.4255 25.333 14.4604 25.3361 14.4962 25.3361C14.8196 25.3361 15.0819 25.0831 15.0819 24.771C15.0819 24.4588 14.8196 24.2058 14.4962 24.2058C14.1727 24.2058 13.9105 24.4588 13.9105 24.771C13.9105 24.7826 13.9108 24.7941 13.9115 24.8056ZM15.9605 32.8246C15.9605 32.7177 15.9297 32.6178 15.8763 32.5325L16.6554 31.2604C16.9266 31.2109 17.1317 30.9811 17.1317 30.7051C17.1317 30.3929 16.8694 30.1399 16.546 30.1399C16.2225 30.1399 15.9602 30.3929 15.9602 30.7051C15.9602 30.8398 16.0091 30.9636 16.0907 31.0607L15.3449 32.2601C15.0353 32.2751 14.7891 32.5221 14.7891 32.8246C14.7891 33.1367 15.0513 33.3897 15.3748 33.3897C15.6982 33.3897 15.9605 33.1367 15.9605 32.8246ZM19.3281 32.2593C19.3281 32.0809 19.2425 31.9218 19.1087 31.8183V30.2984C19.2425 30.1948 19.3281 30.0357 19.3281 29.8573C19.3281 29.5452 19.0659 29.2922 18.7424 29.2922C18.419 29.2922 18.1567 29.5452 18.1567 29.8573C18.1567 30.092 18.305 30.2933 18.516 30.3787L18.4585 31.7649C18.2786 31.8613 18.1567 32.0466 18.1567 32.2593C18.1567 32.5714 18.419 32.8245 18.7424 32.8245C19.0659 32.8245 19.3281 32.5714 19.3281 32.2593ZM20.2753 31.3097C20.4923 31.3924 20.6459 31.5967 20.6459 31.8356C20.6459 32.1477 20.3837 32.4007 20.0602 32.4007C19.7367 32.4007 19.4745 32.1477 19.4745 31.8356C19.4745 31.6601 19.5574 31.5033 19.6874 31.3996L19.4015 25.1241L21.5979 22.0157L24.014 22.2276L27.0889 19.8257H27.8943L28.48 18.4128L28.9925 18.6247L28.2603 20.3202H27.3086L26.5032 22.2276L23.6479 24.2057H22.1836L21.5087 24.9221C21.5191 24.9643 21.5246 25.0083 21.5246 25.0536C21.5246 25.3657 21.2624 25.6187 20.9389 25.6187C20.6155 25.6187 20.3532 25.3657 20.3532 25.0536C20.3532 24.7415 20.6155 24.4884 20.9389 24.4884C20.9814 24.4884 21.0228 24.4928 21.0627 24.5011L21.8908 23.6405L23.5747 23.5699L26.0639 21.8038L26.3568 21.168L24.0872 22.9341L21.8908 22.7221L19.9872 25.2653L20.2753 31.3097ZM28.0407 17.8477L28.6264 17.9183L29.1389 16.1522L29.9442 15.1632L31.7013 14.9512V14.5514C32.5419 15.0476 32.8376 15.7622 32.8727 16.1522C32.9948 15.9402 33.2535 15.4881 33.312 15.3751C33.3706 15.2621 33.3364 14.4803 33.312 14.1035L32.8727 13.4677L31.9942 13.1145L30.8228 13.6796L30.4567 14.1035C30.8378 14.1747 31.1632 14.2823 31.44 14.4131L29.6514 14.598L28.5532 16.0109L28.0407 17.8477ZM13.7639 20.2499C13.9784 20.2499 14.166 20.1386 14.2681 19.9726L17.4039 20.0343C17.5111 20.1656 17.6774 20.2499 17.8641 20.2499C18.1876 20.2499 18.4498 19.9968 18.4498 19.6847C18.4498 19.3726 18.1876 19.1196 17.8641 19.1196C17.6184 19.1196 17.408 19.2655 17.3211 19.4725H14.3069C14.22 19.2655 14.0096 19.1196 13.7639 19.1196C13.4405 19.1196 13.1782 19.3726 13.1782 19.6847C13.1782 19.9968 13.4405 20.2499 13.7639 20.2499ZM12.8422 18.6268C12.7548 18.8329 12.545 18.9781 12.2999 18.9781C11.9764 18.9781 11.7142 18.7251 11.7142 18.413C11.7142 18.1009 11.9764 17.8478 12.2999 17.8478C12.5159 17.8478 12.7046 17.9606 12.8062 18.1286L18.5962 18.0596V18.6954L12.8422 18.6268ZM10.689 17.989C10.9402 17.989 11.1545 17.8364 11.2377 17.622L13.6177 17.4944L13.5445 16.9293L11.1388 17.0619C11.0314 16.9377 10.8697 16.8587 10.689 16.8587C10.3655 16.8587 10.1033 17.1117 10.1033 17.4239C10.1033 17.736 10.3655 17.989 10.689 17.989ZM8.88514 16.0916C8.79573 16.2934 8.58815 16.4348 8.34635 16.4348C8.02288 16.4348 7.76065 16.1818 7.76065 15.8696C7.76065 15.5575 8.02288 15.3045 8.34635 15.3045C8.59215 15.3045 8.80258 15.4506 8.88947 15.6577H13.3249L14.3498 16.7173L20.7022 16.8551C20.8049 16.7694 20.9388 16.7176 21.0852 16.7176C21.4086 16.7176 21.6709 16.9706 21.6709 17.2827C21.6709 17.5949 21.4086 17.8479 21.0852 17.8479C20.8191 17.8479 20.5945 17.6768 20.5232 17.4424L19.7676 17.4944L20.573 18.2009L20.0605 18.6247L18.889 17.4944L13.9838 17.3531L13.032 16.2228L8.88514 16.0916ZM11.7821 14.598H14.1302L15.448 15.587H24.8925V16.1522H15.2284L13.9838 15.1632H11.782C11.6808 15.332 11.4915 15.4457 11.2747 15.4457C10.9513 15.4457 10.689 15.1926 10.689 14.8805C10.689 14.5684 10.9513 14.3154 11.2747 14.3154C11.4916 14.3154 11.6809 14.429 11.7821 14.598ZM10.3963 14.5274L6.87033 13.7788C6.81607 13.5209 6.5797 13.3267 6.29634 13.3267C5.97286 13.3267 5.71063 13.5797 5.71063 13.8919C5.71063 14.204 5.97286 14.457 6.29634 14.457C6.44906 14.457 6.58813 14.4006 6.6924 14.3082L10.3231 15.0219L10.3963 14.5274ZM6.73564 13.3265C6.88968 13.3265 7.02984 13.2691 7.1344 13.1753L9.81063 13.8209L13.9838 13.9622L15.2284 15.0219L16.9745 14.9595C17.0819 15.0839 17.2438 15.1632 17.4248 15.1632C17.7483 15.1632 18.0105 14.9101 18.0105 14.598C18.0105 14.2859 17.7483 14.0328 17.4248 14.0328C17.179 14.0328 16.9685 14.1789 16.8817 14.3861H15.5212L14.1302 13.2557H10.0303L7.28971 12.5777C7.2107 12.3557 6.99247 12.1962 6.73564 12.1962C6.41216 12.1962 6.14993 12.4492 6.14993 12.7614C6.14993 13.0735 6.41216 13.3265 6.73564 13.3265ZM4.25423 11.7136C4.1468 11.836 3.98632 11.9138 3.80703 11.9138C3.48355 11.9138 3.22132 11.6607 3.22132 11.3486C3.22132 11.0365 3.48355 10.7835 3.80703 10.7835C4.06172 10.7835 4.27845 10.9403 4.3591 11.1594L7.02853 11.4896V12.1254L4.25423 11.7136ZM1.1497 7.04542L5.71069 9.8648H7.54102L9.81063 11.7016H15.5636C15.6504 11.9087 15.8609 12.0549 16.1068 12.0549C16.4302 12.0549 16.6925 11.8019 16.6925 11.4898C16.6925 11.1776 16.4302 10.9246 16.1068 10.9246C15.9219 10.9246 15.757 11.0073 15.6496 11.1364H12.2999L10.6773 9.76647C10.6851 9.72978 10.6891 9.69179 10.6891 9.65289C10.6891 9.34076 10.4269 9.08774 10.1034 9.08774C9.77995 9.08774 9.51772 9.34076 9.51772 9.65289C9.51772 9.96502 9.77995 10.2181 10.1034 10.2181C10.1694 10.2181 10.2329 10.2075 10.2921 10.1881L11.2749 11.1364H10.0303L7.76066 9.29965H5.85712L1.46066 6.60617C1.46295 6.58589 1.46412 6.56528 1.46412 6.54441C1.46412 6.23228 1.20189 5.97925 0.878415 5.97925C0.554939 5.97925 0.29271 6.23228 0.29271 6.54441C0.29271 6.85654 0.554939 7.10957 0.878415 7.10957C0.97631 7.10957 1.0686 7.08639 1.1497 7.04542ZM5.71347 8.46658L0.884256 4.6291C0.796831 4.67918 0.694748 4.70793 0.585705 4.70793C0.262229 4.70793 0 4.4549 0 4.14277C0 3.83064 0.262229 3.57761 0.585705 3.57761C0.904505 3.57761 1.16382 3.82338 1.17125 4.12928L6.08948 7.99363C6.1538 7.97019 6.22352 7.95737 6.29634 7.95737C6.61981 7.95737 6.88204 8.2104 6.88204 8.52253C6.88204 8.83465 6.61981 9.08768 6.29634 9.08768C5.97286 9.08768 5.71063 8.83465 5.71063 8.52253C5.71063 8.50365 5.71159 8.48498 5.71347 8.46658ZM26.7961 10.5712L26.8693 10.0767L28.2603 10.43L28.1139 10.8538L26.7961 10.5712Z" fill="#0D6E78"/>
</svg>
